<?xml version="1.0" standalone="no"?>
<!DOCTYPE svg PUBLIC "-//W3C//DTD SVG 1.1//EN" "http://www.w3.org/Graphics/SVG/1.1/DTD/svg11.dtd" >
<svg xmlns="http://www.w3.org/2000/svg">
<metadata></metadata>
<defs>
<font id="arcade_roundedregular" horiz-adv-x="2004" >
<font-face units-per-em="2048" ascent="1797" descent="-251" />
<missing-glyph horiz-adv-x="500" />
<glyph horiz-adv-x="2048" />
<glyph horiz-adv-x="2048" />
<glyph unicode="&#xd;" />
<glyph unicode=" " />
<glyph unicode="!" d="M501 126v249q0 53 37 89.5t89 36.5h251q53 0 88.5 -36.5t35.5 -89.5v-249q0 -53 -35.5 -89.5t-88.5 -36.5h-251q-53 0 -89.5 36.5t-36.5 89.5zM501 878v752q0 53 37 88.5t89 35.5h251q51 0 87.5 -36.5t36.5 -87.5v-752q0 -53 -35.5 -89.5t-88.5 -36.5h-251 q-53 0 -89.5 36.5t-36.5 89.5z" />
<glyph unicode="&#x22;" d="M251 878q0 -53 36.5 -89.5t89.5 -36.5q132 0 253.5 122.5t121.5 254.5v501q0 51 -37 87.5t-88 36.5h-250q-53 0 -89.5 -36t-36.5 -88v-251l250 -250q0 -79 -64 -108q-60 -19 -122 -38q-64 -28 -64 -105zM1002 878q0 -53 37 -89.5t90 -36.5q132 0 253.5 122.5t121.5 254.5 v501q0 51 -37 87.5t-88 36.5h-250q-53 0 -90 -36t-37 -88v-251l251 -250q0 -79 -64 -108q-60 -19 -123 -38q-64 -28 -64 -105z" />
<glyph unicode="#" d="M251 626q0 -53 36.5 -89t89.5 -36q77 0 105 -64q19 -60 38 -122q28 -64 107 -64q77 0 106 64q19 60 38 122q28 64 107 64q77 0 105 -64q19 -60 38 -122q28 -64 108 -64q77 0 105 64q19 60 38 122q28 64 107 64q51 0 88 37t37 88q0 79 -65 107q-60 19 -122 38 q-64 28 -64 107q0 77 64 105q62 19 122 38q65 29 65 108q0 77 -65 105q-60 19 -122 38q-64 28 -64 107q0 51 -37 88t-87 37q-79 0 -108 -65q-19 -60 -38 -122q-28 -64 -105 -64q-79 0 -107 64q-19 62 -38 122q-28 65 -106 65q-53 0 -89.5 -36t-36.5 -89l-250 -250 q0 -79 64 -108q62 -19 122 -38q64 -28 64 -105q0 -79 -64 -107q-60 -19 -122 -38q-64 -28 -64 -107zM752 878q0 53 36.5 88.5t89.5 35.5q51 0 87.5 -36.5t36.5 -87.5q0 -53 -35.5 -89.5t-88.5 -36.5t-89.5 36.5t-36.5 89.5z" />
<glyph unicode="$" d="M251 377q0 -53 36.5 -89.5t89.5 -36.5h250q77 0 106 -64q19 -60 38 -123q28 -64 107 -64q77 0 105 64q19 62 38 123q28 64 108 64q132 0 253.5 121.5t121.5 253.5t-122 254t-253 122q-53 0 -90 37t-37 90q0 126 185 126q23 0 66 -2t66 -2q185 0 185 128q0 51 -37 88 t-88 37h-250q-79 0 -108 64q-19 62 -38 122q-28 64 -105 64l-251 -250q-132 0 -254 -122t-122 -253q0 -134 121.5 -255.5t254.5 -121.5q53 0 89 -37t36 -89q0 -126 -185 -127q-23 0 -66 2t-66 2q-185 0 -184 -126zM501 1129q0 53 37 88.5t89 35.5q51 0 88 -36.5t37 -87.5 q0 -53 -36 -90t-89 -37t-89.5 37t-36.5 90zM1002 626q0 53 37 89.5t90 36.5t88.5 -37t35.5 -89q0 -51 -37 -88t-87 -37q-53 0 -90 36t-37 89z" />
<glyph unicode="%" d="M0 126q0 124 89 213l1326 1327q89 88 215 88q51 0 87.5 -36.5t36.5 -87.5q0 -126 -88 -215l-1327 -1326q-89 -89 -213 -89q-53 0 -89.5 36.5t-36.5 89.5zM0 1379q0 -134 121.5 -255.5t255.5 -121.5q132 0 253.5 122.5t121.5 254.5t-121.5 253.5t-253.5 121.5 t-254.5 -121.5t-122.5 -253.5zM251 1379q0 53 36.5 89t89.5 36q51 0 87.5 -37t36.5 -88q0 -53 -35.5 -89.5t-88.5 -36.5t-89.5 36.5t-36.5 89.5zM1002 377q0 -134 121.5 -255.5t255.5 -121.5q132 0 253.5 122.5t121.5 254.5t-121.5 253.5t-253.5 121.5t-254.5 -121.5 t-122.5 -253.5zM1253 377q0 53 36.5 88.5t89.5 35.5q51 0 88 -36.5t37 -87.5q0 -53 -36 -89.5t-89 -36.5t-89.5 36.5t-36.5 89.5z" />
<glyph unicode="&#x26;" d="M0 315q0 -128 126 -225q119 -90 251 -90h501q60 0 148.5 34t103.5 34t103 -34t146 -34h251q40 0 75 13q49 17 49 49q0 45 -68 126t-68 125q0 26 68 128.5t68 185.5q0 51 -36.5 88t-87.5 37h-501q-66 0 -66 37q0 21 49 72q34 34 92 107q49 75 49 161v250 q0 132 -121.5 253.5t-253.5 121.5h-501q-132 0 -254.5 -121.5t-122.5 -253.5v-250q0 -73 49 -154.5t49 -87.5q0 -9 -49 -98.5t-49 -162.5v-311zM251 315v311q0 126 32 126q28 0 128 -79l508 -405q34 -26 34 -49q0 -30 -60 -31h-516q-53 0 -89.5 37t-36.5 90zM501 1379 q0 53 37 89t89 36h251q51 0 87.5 -37t36.5 -88v-250q0 -53 -35.5 -90t-88.5 -37q-134 0 -255.5 121.5t-121.5 255.5z" />
<glyph unicode="'" d="M251 878q0 -53 36.5 -89.5t89.5 -36.5q132 0 253.5 122.5t121.5 254.5v501q0 51 -37 87.5t-88 36.5h-250q-53 0 -89.5 -36t-36.5 -88v-251l250 -250q0 -79 -64 -108q-60 -19 -122 -38q-64 -28 -64 -105z" />
<glyph unicode="(" d="M251 627v502q0 124 88 212l324 325q89 88 215 88h251q51 0 87.5 -36.5t36.5 -87.5q0 -53 -36 -89.5t-88 -36.5q-132 0 -254.5 -122t-122.5 -253v-502q0 -134 121.5 -255t255.5 -121q51 0 87.5 -37t36.5 -88q0 -53 -36 -89.5t-88 -36.5h-251q-126 0 -215 89l-324 324 q-89 89 -88 214z" />
<glyph unicode=")" d="M501 126q0 53 37 89t89 36q132 0 253.5 122.5t121.5 253.5v502q0 132 -121.5 253.5t-253.5 121.5q-53 0 -89.5 36.5t-36.5 89.5t37 88.5t89 35.5h251q124 0 213 -88l324 -325q89 -89 89 -212v-502q0 -126 -89 -214l-324 -324q-89 -89 -213 -89h-251q-53 0 -89.5 36.5 t-36.5 89.5z" />
<glyph unicode="*" d="M251 627q0 -96 88 -118q28 -8 162 -8q49 0 139.5 38.5t77.5 38.5q32 0 32 -90v-43q0 -194 128 -194q126 0 126 194v43q0 90 34 90q9 0 27 -15q55 -47 150 -58q30 -4 164 -4q53 0 89 37t36 89q0 77 -65 106q-60 19 -122 38q-64 28 -64 107q0 77 64 105q62 19 122 38 q65 29 65 108q0 94 -89 116q-28 8 -162 8q-49 0 -139.5 -38.5t-75.5 -38.5q-34 0 -34 90v43q0 195 -126 195q-128 0 -128 -195v-43q0 -90 -32 -90q-11 0 -28 15q-55 47 -151 58q-30 4 -162 4q-53 0 -89.5 -36t-36.5 -88l250 -251q0 -79 -64 -107l-120 -38q-66 -28 -66 -106z " />
<glyph unicode="+" d="M251 878q0 53 36.5 88.5t89.5 35.5h250q126 0 127 185q0 23 -2 66t-2 66q0 185 128 185q126 0 126 -185q0 -23 -2 -66t-2 -66q0 -185 129 -185h250q51 0 88 -36.5t37 -87.5q0 -53 -36 -89.5t-89 -36.5h-250q-128 0 -129 -185q0 -23 2 -66t2 -66q0 -185 -126 -184 q-53 0 -89.5 36.5t-36.5 89.5v249q0 128 -185 128q-23 0 -66 -2t-66 -2q-185 0 -184 128z" />
<glyph unicode="," d="M251 126q0 -53 36.5 -89.5t89.5 -36.5q132 0 253.5 122.5t121.5 254.5v501q0 51 -37 87.5t-88 36.5h-250q-53 0 -89.5 -35.5t-36.5 -88.5v-251q0 -79 64 -107q62 -19 122 -38q64 -28 64 -105q0 -79 -64 -108q-60 -19 -122 -37q-64 -28 -64 -106z" />
<glyph unicode="-" d="M251 878q0 53 36.5 88.5t89.5 35.5h1002q51 0 88 -36.5t37 -87.5q0 -53 -36 -89.5t-89 -36.5h-1002q-53 0 -89.5 36.5t-36.5 89.5z" />
<glyph unicode="." d="M251 126v251q0 53 36.5 88.5t89.5 35.5h250q51 0 88 -36.5t37 -87.5v-251q0 -53 -36 -89.5t-89 -36.5h-250q-53 0 -89.5 36.5t-36.5 89.5z" />
<glyph unicode="/" d="M0 126q0 124 89 213l1326 1327q89 88 215 88q51 0 87.5 -36.5t36.5 -87.5q0 -126 -88 -215l-1327 -1326q-89 -89 -213 -89q-53 0 -89.5 36.5t-36.5 89.5z" />
<glyph unicode="0" d="M0 627q0 -85 49 -160q28 -43 113 -128l177 -177q85 -85 128 -113q75 -49 160 -49h502q124 0 212 89l325 324q89 89 88 214v502q0 83 -49 158q-28 43 -113 128l-177 177q-85 85 -128 113q-75 49 -158 49h-502q-126 0 -214 -88l-324 -325q-89 -89 -89 -212v-502zM501 627 v752q0 53 37 89t89 36h251q132 0 253.5 -122t121.5 -253v-752q0 -53 -36 -89.5t-88 -36.5h-251q-134 0 -255.5 121.5t-121.5 254.5z" />
<glyph unicode="1" d="M251 126q0 -53 36.5 -89.5t89.5 -36.5h1253q53 0 88.5 36.5t35.5 89.5q0 126 -185 126q-23 0 -66 -1.5t-65 -1.5q-185 0 -185 128v1253q0 51 -36.5 87.5t-87.5 36.5h-251q-132 0 -254.5 -121.5t-122.5 -253.5l251 -250v-752q0 -128 -185 -128q-23 0 -66 1.5t-66 1.5 q-185 0 -184 -126z" />
<glyph unicode="2" d="M0 126q0 -53 36.5 -89.5t89.5 -36.5h1504q53 0 88.5 36.5t35.5 89.5q0 51 -36.5 88t-87.5 37h-752q-96 0 -119 88q-8 28 -7 162q0 53 36.5 89.5t89.5 36.5q28 0 83 -1.5t83 -1.5q205 0 297 92l325 322q64 64 81 160q8 43 7 181q0 132 -121.5 253.5t-253.5 121.5h-1002 q-132 0 -254.5 -121.5t-122.5 -253.5q0 -53 36.5 -89.5t89.5 -36.5h251q77 0 105 64q19 62 38 122q28 65 107 65h502q51 0 87.5 -37t36.5 -88q0 -126 -89 -215l-73 -73q-90 -90 -279 -91q21 0 -60 2h-61q-190 0 -278 -88l-324 -324q-89 -89 -89 -213v-251z" />
<glyph unicode="3" d="M0 377q0 -134 121.5 -255.5t255.5 -121.5h1002q132 0 253.5 122.5t121.5 254.5v249q0 132 -121.5 254t-253.5 122q-160 0 -107 -2q-83 4 -83 40q0 38 147 177l271 258q147 151 147 217q0 32 -49 49q-36 13 -75 13h-1253q-53 0 -89.5 -35.5t-36.5 -88.5t36.5 -89.5 t89.5 -36.5h501q64 0 64 -38q0 -23 -28 -51l-324 -324q-89 -89 -89 -213q0 -53 37 -89.5t89 -36.5h502q53 0 88.5 -37t35.5 -89v-249q0 -53 -36 -89.5t-88 -36.5h-502q-79 0 -107 64q-19 62 -38 122q-28 64 -105 64h-251q-53 0 -89.5 -35.5t-36.5 -88.5z" />
<glyph unicode="4" d="M0 627q0 -53 36.5 -89.5t89.5 -36.5h752q126 0 126 -184q0 -23 -2 -66.5t-2 -65.5q0 -185 129 -185h250q53 0 89 36.5t36 89.5v251q0 77 64 105q62 19 122 38q64 28 64 107l-250 251v752q0 51 -37 87.5t-88 36.5h-501q-126 0 -215 -88l-574 -575q-89 -89 -89 -213v-251z M501 878q0 124 89 213l324 324q28 28 51 28q38 0 37 -64v-501q0 -53 -35.5 -89.5t-88.5 -36.5h-251q-53 0 -89.5 36.5t-36.5 89.5z" />
<glyph unicode="5" d="M0 377q0 53 36.5 88.5t89.5 35.5h251q77 0 105 -64q19 -60 38 -122q28 -64 107 -64h502q53 0 88.5 36.5t35.5 89.5v501q0 51 -37 87.5t-87 36.5h-1003q-53 0 -89.5 37t-36.5 90v501q0 53 36.5 88.5t89.5 35.5h1253q51 0 88 -36.5t37 -87.5q0 -53 -36 -89.5t-89 -36.5 h-752q-53 0 -89.5 -36t-36.5 -89t37 -89.5t89 -36.5h752q83 0 158 -49q217 -139 217 -326v-501q0 -132 -121.5 -254.5t-253.5 -122.5h-1002q-134 0 -255.5 121.5t-121.5 255.5z" />
<glyph unicode="6" d="M0 377q0 -134 121.5 -255.5t255.5 -121.5h1002q132 0 253.5 122.5t121.5 254.5v249q0 185 -217 327q-73 49 -158 49h-752q-53 0 -89.5 37t-36.5 90q0 183 217 326q73 49 160 49h501q53 0 89 36.5t36 89.5q0 51 -37 87.5t-88 36.5h-752q-85 0 -160 -49q-43 -28 -128 -113 l-177 -177q-85 -85 -113 -128q-49 -75 -49 -158v-752zM501 377v249q0 53 37 89.5t89 36.5h502q53 0 88.5 -37t35.5 -89v-249q0 -53 -36 -89.5t-88 -36.5h-502q-53 0 -89.5 36.5t-36.5 89.5z" />
<glyph unicode="7" d="M0 1379q0 -53 36.5 -89.5t89.5 -36.5h251q77 0 105 64q19 62 38 122q28 65 107 65h502q40 0 75 -14q49 -17 49 -49q0 -64 -89 -152l-574 -573q-89 -89 -89 -215v-375q0 -53 37 -89.5t89 -36.5h251q128 0 128 200q0 36 -3.5 104.5t-3.5 104.5q0 215 92 307l575 573 q64 64 81 160q8 43 7 181q0 51 -36.5 87.5t-87.5 36.5h-1504q-53 0 -89.5 -36t-36.5 -88v-251z" />
<glyph unicode="8" d="M0 377q0 -134 121.5 -255.5t255.5 -121.5h1002q132 0 253.5 122.5t121.5 254.5v249q0 92 -77 156q-26 23 -145 83q-77 39 -77 77q0 -47 24.5 48t24.5 139v250q0 132 -122 253.5t-253 121.5h-752q-132 0 -254.5 -121.5t-122.5 -253.5v-250q0 -68 44.5 -156.5t44.5 -96.5 q0 -6 -44.5 -94.5t-44.5 -155.5v-249zM251 377v249q0 53 36.5 89.5t89.5 36.5h250q121 0 236 -57l279 -137q45 -23 78 -76.5t33 -104.5q0 -53 -36 -89.5t-88 -36.5h-752q-53 0 -89.5 36.5t-36.5 89.5zM501 1379q0 53 37 89t89 36h502q51 0 87.5 -37t36.5 -88v-250 q0 -53 -36 -90t-88 -37h-251q-134 0 -255.5 121.5t-121.5 255.5z" />
<glyph unicode="9" d="M0 1129q0 -185 217 -328q73 -49 160 -49h752q51 0 87.5 -37t36.5 -88q0 -185 -217 -327q-73 -49 -158 -49h-501q-53 0 -89.5 -36t-36.5 -89t36.5 -89.5t89.5 -36.5h752q83 0 158 49q43 28 128 113l177 177q85 85 113 128q49 75 49 160v752q0 132 -121.5 253.5 t-253.5 121.5h-1002q-132 0 -254.5 -121.5t-122.5 -253.5v-250zM501 1129v250q0 53 37 89t89 36h502q51 0 87.5 -37t36.5 -88v-250q0 -53 -36 -90t-88 -37h-502q-53 0 -89.5 37t-36.5 90z" />
<glyph unicode=":" d="M251 126v251q0 53 36.5 88.5t89.5 35.5h250q51 0 88 -36.5t37 -87.5v-251q0 -53 -36 -89.5t-89 -36.5h-250q-53 0 -89.5 36.5t-36.5 89.5zM251 1129v250q0 53 36.5 89t89.5 36h250q51 0 88 -37t37 -88v-250q0 -53 -36 -90t-89 -37h-250q-53 0 -89.5 37t-36.5 90z" />
<glyph unicode=";" d="M251 126q0 -53 36.5 -89.5t89.5 -36.5q132 0 253.5 122.5t121.5 254.5v501q0 51 -37 87.5t-88 36.5h-250q-53 0 -89.5 -35.5t-36.5 -88.5v-251q0 -79 64 -107q62 -19 122 -38q64 -28 64 -105q0 -79 -64 -108q-60 -19 -122 -37q-64 -28 -64 -106zM251 1379v251 q0 53 36.5 88.5t89.5 35.5h250q51 0 88 -36.5t37 -87.5v-251q0 -53 -36 -89.5t-89 -36.5h-250q-53 0 -89.5 36.5t-36.5 89.5z" />
<glyph unicode="&#x3c;" d="M251 878q0 124 88 213l324 324q89 89 215 89h251q64 0 64 -38q0 -23 -29 -51l-324 -324q-89 -89 -88 -213q0 -126 88 -215l324 -324q28 -28 29 -51q0 -38 -64 -37h-251q-126 0 -215 88l-324 324q-89 89 -88 215z" />
<glyph unicode="=" d="M251 627q0 53 36.5 89t89.5 36h1002q51 0 88 -37t37 -88q0 -53 -36 -89.5t-89 -36.5h-1002q-53 0 -89.5 36.5t-36.5 89.5zM251 1129q0 53 36.5 88.5t89.5 35.5h1002q51 0 88 -37t37 -87q0 -53 -36 -90t-89 -37h-1002q-53 0 -89.5 37t-36.5 90z" />
<glyph unicode="&#x3e;" d="M561 288q0 23 29 51l324 324q89 89 88 215q0 124 -88 213l-324 324q-29 28 -29 51q0 38 66 38h251q124 0 213 -89l324 -324q89 -89 89 -213q0 -126 -89 -215l-324 -324q-89 -89 -213 -88h-251q-66 0 -66 37z" />
<glyph unicode="?" d="M0 1379q0 132 122.5 253.5t254.5 121.5h1002q132 0 253.5 -121.5t121.5 -253.5q0 -126 -88 -215q-94 -96 -151 -126q-75 -40 -190 -39q-32 0 -98 1.5t-98 1.5q-79 0 -108 -64q-19 -60 -38 -122q-28 -64 -105 -64h-251q-53 0 -89.5 36.5t-36.5 89.5q0 124 89 213l73 73 q92 92 296 93q28 0 84.5 -2t85.5 -2q53 0 88.5 36.5t35.5 89.5q0 51 -37 88t-87 37h-502q-79 0 -107 -65q-19 -60 -38 -122q-28 -64 -105 -64h-251q-53 0 -89.5 36.5t-36.5 89.5zM501 126v249q0 53 37 89.5t89 36.5h251q53 0 88.5 -36.5t35.5 -89.5v-249q0 -53 -35.5 -89.5 t-88.5 -36.5h-251q-53 0 -89.5 36.5t-36.5 89.5z" />
<glyph unicode="@" d="M0 377q0 -134 121.5 -255.5t255.5 -121.5h1002q53 0 89 36.5t36 89.5q0 51 -37 88t-88 37h-752q-53 0 -89.5 36.5t-36.5 89.5t37 88.5t89 35.5h752q83 0 158 49q217 139 217 328v501q0 132 -121.5 253.5t-253.5 121.5h-1002q-132 0 -254.5 -121.5t-122.5 -253.5v-1002z M501 878q0 53 37 88.5t89 35.5q51 0 88 -36.5t37 -87.5q0 -53 -36 -89.5t-89 -36.5t-89.5 36.5t-36.5 89.5zM501 1379q0 53 37 89t89 36h502q51 0 87.5 -37t36.5 -88v-501q0 -53 -36 -89.5t-88 -36.5q-53 0 -90 36.5t-37 89.5v251q0 126 -184 126q-23 0 -66.5 -2t-65.5 -2 q-185 0 -185 128z" />
<glyph unicode="A" d="M0 126q0 -53 36.5 -89.5t89.5 -36.5h251q126 0 126 185q0 23 -2 66t-2 66q0 184 127 184h1h502q126 0 126 -184q0 -23 -2 -66.5t-2 -65.5q0 -185 128 -185h251q53 0 88.5 36.5t35.5 89.5v1003q0 124 -88 212l-325 325q-88 88 -212 88h-502q-126 0 -214 -88l-324 -325 q-89 -89 -89 -212v-1003zM501 878v251q0 132 122.5 253.5t254.5 121.5t253.5 -122t121.5 -253v-251q0 -53 -36 -89.5t-88 -36.5h-502q-53 0 -89.5 36.5t-36.5 89.5z" />
<glyph unicode="B" d="M0 126q0 -53 36.5 -89.5t89.5 -36.5h1253q132 0 253.5 122.5t121.5 254.5v249q0 68 -44 156t-44 94q0 8 44 96.5t44 156.5v250q0 132 -121.5 253.5t-253.5 121.5h-1253q-53 0 -89.5 -36t-36.5 -88v-1504zM501 377v249q0 53 37 89.5t89 36.5h502q53 0 88.5 -37t35.5 -89 v-249q0 -53 -36 -89.5t-88 -36.5h-502q-53 0 -89.5 36.5t-36.5 89.5zM501 1129v250q0 53 37 89t89 36h502q51 0 87.5 -37t36.5 -88v-250q0 -53 -36 -90t-88 -37h-502q-53 0 -89.5 37t-36.5 90z" />
<glyph unicode="C" d="M0 626v503q0 124 89 212l324 325q88 88 214 88h752q132 0 253.5 -121.5t121.5 -253.5q0 -53 -36 -89.5t-88 -36.5h-251q-79 0 -107 64q-19 62 -38 122q-28 65 -105 65h-251q-132 0 -254.5 -122t-122.5 -253v-503q0 -132 122.5 -253.5t254.5 -121.5h251q77 0 105 64 q19 60 38 122q28 64 107 64h251q51 0 87.5 -36.5t36.5 -87.5q0 -132 -121.5 -254.5t-253.5 -122.5h-752q-126 0 -214 89l-324 324q-89 89 -89 213z" />
<glyph unicode="D" d="M0 126q0 -53 36.5 -89.5t89.5 -36.5h1003q124 0 212 89l325 324q89 89 88 213v501q0 126 -88 214l-325 325q-88 88 -212 88h-1003q-53 0 -89.5 -36.5t-36.5 -89.5v-1502zM501 377v1000q0 53 37 90t89 37h251q132 0 253.5 -122.5t121.5 -254.5v-501q0 -132 -121.5 -253.5 t-253.5 -121.5h-251q-53 0 -89.5 36.5t-36.5 89.5z" />
<glyph unicode="E" d="M0 126v1502q0 53 36.5 89.5t89.5 36.5h1504q53 0 88.5 -36.5t35.5 -89.5q0 -51 -36.5 -87.5t-87.5 -36.5h-1003q-53 0 -89.5 -37t-36.5 -90v-248q0 -53 37 -90t89 -37h752q51 0 88 -36.5t37 -87.5q0 -53 -36 -89.5t-89 -36.5h-752q-53 0 -89.5 -37t-36.5 -89v-249 q0 -53 37 -89.5t89 -36.5h1003q51 0 87.5 -37t36.5 -88q0 -53 -36 -89.5t-88 -36.5h-1504q-53 0 -89.5 36.5t-36.5 89.5z" />
<glyph unicode="F" d="M0 126v1502q0 53 36.5 89.5t89.5 36.5h1504q53 0 88.5 -36.5t35.5 -89.5q0 -51 -36.5 -87.5t-87.5 -36.5h-1003q-53 0 -89.5 -37t-36.5 -90v-248q0 -53 37 -90t89 -37h752q51 0 88 -36.5t37 -87.5q0 -53 -36 -89.5t-89 -36.5h-752q-53 0 -89.5 -37t-36.5 -89v-500 q0 -53 -35.5 -89.5t-88.5 -36.5h-251q-53 0 -89.5 36.5t-36.5 89.5z" />
<glyph unicode="G" d="M0 626q0 -124 89 -213l324 -324q89 -89 214 -89h1003q53 0 88.5 36.5t35.5 89.5v752q0 51 -36.5 87.5t-87.5 36.5h-501q-53 0 -90 -35.5t-37 -88.5q0 -79 64 -107q62 -19 123 -38q64 -28 64 -107v-249q0 -53 -36 -89.5t-88 -36.5h-251q-132 0 -254.5 121.5t-122.5 253.5 v501q0 188 217 328q75 49 160 49h752q51 0 87.5 36.5t36.5 87.5q0 53 -36 89.5t-88 36.5h-1003q-126 0 -214 -88l-324 -325q-89 -88 -89 -214v-501z" />
<glyph unicode="H" d="M0 126q0 -53 36.5 -89.5t89.5 -36.5h251q53 0 88.5 36.5t35.5 89.5v500q0 53 37 89.5t89 36.5h502q53 0 88.5 -37t35.5 -89v-500q0 -53 36.5 -89.5t89.5 -36.5h251q53 0 88.5 36.5t35.5 89.5v1502q0 53 -36 89.5t-88 36.5h-251q-53 0 -89.5 -36.5t-36.5 -89.5v-499 q0 -53 -36 -90t-88 -37h-502q-53 0 -89.5 37t-36.5 90v499q0 53 -35.5 89.5t-88.5 36.5h-251q-53 0 -89.5 -36.5t-36.5 -89.5v-1502z" />
<glyph unicode="I" d="M251 126q0 126 184 126q23 0 66 -1.5t66 -1.5q185 0 185 128v1000q0 128 -185 128q-23 0 -66 -1.5t-66 -1.5q-184 0 -184 126q0 53 36.5 89.5t89.5 36.5h1253q53 0 88.5 -36.5t35.5 -89.5q0 -126 -185 -126q-23 0 -66 1.5t-65 1.5q-185 0 -185 -128v-1000 q0 -128 185 -128q23 0 66 1.5t65 1.5q185 0 185 -126q0 -53 -36 -89.5t-88 -36.5h-1253q-53 0 -89.5 36.5t-36.5 89.5z" />
<glyph unicode="J" d="M0 377v249q0 53 36.5 89.5t89.5 36.5h251q126 0 126 -185q0 -23 -2 -66t-2 -66q0 -184 127 -184h1h502q53 0 88.5 36.5t35.5 89.5v1251q0 53 36.5 89.5t89.5 36.5h251q53 0 88.5 -36.5t35.5 -89.5v-1251q0 -132 -121.5 -254.5t-253.5 -122.5h-1002q-134 0 -255.5 121.5 t-121.5 255.5z" />
<glyph unicode="K" d="M0 126q0 -53 36.5 -89.5t89.5 -36.5h251q126 0 126 185q0 23 -2 66t-2 66q0 184 127 184h1l752 -501h251q53 0 88.5 36.5t35.5 89.5q0 124 -88 213l-449 449q-38 38 -38 88q0 53 38 91l449 448q88 89 88 213q0 53 -36 89.5t-88 36.5h-251q-126 0 -215 -88l-574 -575 q-28 -28 -51 -28q-38 0 -38 66v499q0 53 -35.5 89.5t-88.5 36.5h-251q-53 0 -89.5 -36.5t-36.5 -89.5v-1502z" />
<glyph unicode="L" d="M0 126v1502q0 53 36.5 89.5t89.5 36.5h251q53 0 88.5 -36.5t35.5 -89.5v-1251q0 -53 37 -89.5t89 -36.5h1003q51 0 87.5 -37t36.5 -88q0 -53 -36 -89.5t-88 -36.5h-1504q-53 0 -89.5 36.5t-36.5 89.5z" />
<glyph unicode="M" d="M0 126q0 -53 36.5 -89.5t89.5 -36.5h251q53 0 88.5 36.5t35.5 89.5v752q0 64 38 64q19 0 70 -49q72 -68 109 -92q75 -49 160 -49q81 0 158 49q40 26 110 92q51 49 69 49q38 0 38 -64v-752q0 -53 36.5 -89.5t89.5 -36.5h251q53 0 88.5 36.5t35.5 89.5v1502q0 53 -36 89.5 t-88 36.5h-251q-107 0 -207 -85q-21 -17 -155 -154q-83 -85 -139 -85q-58 0 -141 85q-134 138 -155 154q-100 85 -205 85h-251q-53 0 -89.5 -36.5t-36.5 -89.5v-1502z" />
<glyph unicode="N" d="M0 126q0 -53 36.5 -89.5t89.5 -36.5h251q53 0 88.5 36.5t35.5 89.5v626q0 64 38 64q23 0 51 -28l699 -699q64 -64 160 -81q43 -8 181 -8q53 0 88.5 36.5t35.5 89.5v1504q0 51 -36.5 87.5t-87.5 36.5h-251q-53 0 -89.5 -36t-36.5 -88v-628q0 -64 -38 -64q-23 0 -51 29 l-699 699q-64 64 -160 81q-38 7 -150 7h-29q-53 0 -89.5 -36t-36.5 -88v-1504z" />
<glyph unicode="O" d="M0 377q0 -134 121.5 -255.5t255.5 -121.5h1002q132 0 253.5 122.5t121.5 254.5v1002q0 132 -121.5 253.5t-253.5 121.5h-1002q-132 0 -254.5 -121.5t-122.5 -253.5v-1002zM501 377v1002q0 53 37 89t89 36h502q51 0 87.5 -37t36.5 -88v-1002q0 -53 -36 -89.5t-88 -36.5 h-502q-53 0 -89.5 36.5t-36.5 89.5z" />
<glyph unicode="P" d="M0 126q0 -53 36.5 -89.5t89.5 -36.5h251q126 0 126 185q0 23 -2 66t-2 66q0 184 127 184h1h752q132 0 253.5 122.5t121.5 254.5v501q0 132 -121.5 253.5t-253.5 121.5h-1253q-53 0 -89.5 -36t-36.5 -88v-1504zM501 878v501q0 53 37 89t89 36h502q51 0 87.5 -37t36.5 -88 v-501q0 -53 -36 -89.5t-88 -36.5h-502q-53 0 -89.5 36.5t-36.5 89.5z" />
<glyph unicode="Q" d="M0 377q0 -134 121.5 -255.5t255.5 -121.5h752q68 0 154.5 44.5t95.5 44.5q8 0 94.5 -44.5t156.5 -44.5q53 0 88.5 36.5t35.5 89.5q0 68 -44 154.5t-44 96.5q0 8 44 94.5t44 155.5v752q0 132 -121.5 253.5t-253.5 121.5h-1002q-132 0 -254.5 -121.5t-122.5 -253.5v-1002z M501 377v1002q0 53 37 89t89 36h502q51 0 87.5 -37t36.5 -88v-501q0 -53 -36 -89.5t-88 -36.5h-251q-66 0 -66 -38q0 -21 49 -72q34 -34 92 -107q49 -75 49 -158q0 -53 -35.5 -89.5t-88.5 -36.5h-251q-53 0 -89.5 36.5t-36.5 89.5z" />
<glyph unicode="R" d="M0 126q0 -53 36.5 -89.5t89.5 -36.5h251q126 0 126 185q0 23 -2 66t-2 66q0 184 127 184h1l752 -501h251q40 0 75 13q49 17 49 49q0 64 -128 196q-23 23 -158 155q-38 36 -38 88q0 58 85 141q141 138 154 153q85 101 85 207v377q0 132 -121.5 253.5t-253.5 121.5h-1253 q-53 0 -89.5 -36t-36.5 -88v-1504zM501 878v501q0 53 37 89t89 36h502q51 0 87.5 -37t36.5 -88v-250q0 -132 -121.5 -254.5t-253.5 -122.5h-251q-53 0 -89.5 36.5t-36.5 89.5z" />
<glyph unicode="S" d="M0 377q0 53 36.5 88.5t89.5 35.5h251q77 0 105 -64q19 -60 38 -122q28 -64 107 -64h502q53 0 88.5 36.5t35.5 89.5v249q0 53 -36 89.5t-88 36.5h-752q-85 0 -160 49q-217 139 -217 328v250q0 132 122.5 253.5t254.5 121.5h752q132 0 253.5 -121.5t121.5 -253.5 q0 -53 -36 -89.5t-89 -36.5h-250q-79 0 -108 64q-19 62 -38 122q-28 65 -105 65h-251q-53 0 -89.5 -36t-36.5 -89v-250q0 -53 37 -90t89 -37h752q83 0 158 -49q217 -139 217 -327v-249q0 -132 -121.5 -254.5t-253.5 -122.5h-1002q-134 0 -255.5 121.5t-121.5 255.5z" />
<glyph unicode="T" d="M251 1630q0 53 36.5 88.5t89.5 35.5h1253q51 0 87.5 -36.5t36.5 -87.5q0 -128 -185 -128q-23 0 -66 1.5t-65 1.5q-185 0 -185 -126v-1253q0 -53 -36 -89.5t-88 -36.5h-251q-53 0 -89.5 36.5t-36.5 89.5v1253q0 126 -185 126q-23 0 -66 -1.5t-66 -1.5q-184 0 -184 128z " />
<glyph unicode="U" d="M0 377v1253q0 53 36.5 88.5t89.5 35.5h251q51 0 87.5 -36.5t36.5 -87.5v-1253q0 -53 37 -89.5t89 -36.5h502q53 0 88.5 36.5t35.5 89.5v1253q0 53 36.5 88.5t89.5 35.5h251q51 0 87.5 -36.5t36.5 -87.5v-1253q0 -132 -121.5 -254.5t-253.5 -122.5h-1002 q-134 0 -255.5 121.5t-121.5 255.5z" />
<glyph unicode="V" d="M0 878v752q0 53 36.5 88.5t89.5 35.5h251q51 0 87.5 -36.5t36.5 -87.5v-501q0 -85 49 -161q138 -216 326 -216h2q187 0 326 216q49 75 49 161v501q0 53 36.5 88.5t89.5 35.5h251q51 0 87.5 -36.5t36.5 -87.5v-752q0 -126 -88 -215l-575 -574q-89 -89 -213 -89 q-126 0 -215 89l-574 574q-89 89 -89 215z" />
<glyph unicode="W" d="M0 126q0 -53 36.5 -89.5t89.5 -36.5h251q106 0 205 85q21 17 155 154q83 85 141 85q57 0 139 -85q134 -138 155 -154q100 -85 207 -85h251q53 0 88.5 36.5t35.5 89.5v1504q0 51 -36.5 87.5t-87.5 36.5h-251q-53 0 -89.5 -36t-36.5 -88v-752q0 -66 -38 -66q-19 0 -69 49 q-70 66 -110 92q-77 49 -158 49q-85 0 -160 -49q-38 -24 -109 -92q-51 -49 -70 -49q-38 0 -38 66v752q0 51 -36.5 87.5t-87.5 36.5h-251q-53 0 -89.5 -36t-36.5 -88v-1504z" />
<glyph unicode="X" d="M0 126q0 -96 89 -118q28 -8 162 -8q126 0 214 89l323 324q35 35 87 35h3q53 0 89 -35l322 -324q64 -64 160 -81q43 -8 181 -8q94 0 117 89q7 25 7 134v28q0 126 -88 214l-325 323q-36 36 -35 88q0 55 35 91l325 322q64 64 81 160q7 43 7 181q0 94 -88 117q-25 7 -134 7 h-28q-126 0 -215 -88l-322 -325q-35 -35 -86 -35h-3q-55 0 -90 35l-323 325q-64 64 -160 81q-38 7 -150 7h-29q-96 0 -118 -88q-8 -28 -8 -162q0 -126 89 -215l324 -322q35 -35 35 -88q0 -56 -35 -91l-324 -323q-64 -64 -81 -160q-8 -43 -8 -179z" />
<glyph unicode="Y" d="M251 1129v501q0 53 36.5 88.5t89.5 35.5h250q51 0 88 -36.5t37 -87.5v-501q0 -53 36.5 -90t89.5 -37h251q53 0 88.5 37t35.5 90v501q0 53 36.5 88.5t89.5 35.5h251q51 0 87.5 -36.5t36.5 -87.5v-501q0 -132 -121.5 -254.5t-253.5 -122.5q-53 0 -89.5 -37t-36.5 -89v-500 q0 -53 -36 -89.5t-88 -36.5h-251q-53 0 -89.5 36.5t-36.5 89.5v500q0 53 -36 89.5t-89 36.5q-134 0 -255 121.5t-121 255.5z" />
<glyph unicode="Z" d="M0 251q0 126 89 214l825 824q88 88 88 151q0 33 -49 50q-36 14 -75 14h-752q-53 0 -89.5 36.5t-36.5 89.5t36.5 88.5t89.5 35.5h1504q94 0 117 -88q7 -25 7 -134v-28q0 -126 -88 -215l-826 -824q-88 -88 -88 -151q0 -33 49 -50q38 -13 77 -13h752q51 0 87.5 -37t36.5 -88 q0 -53 -36 -89.5t-88 -36.5h-1504q-96 0 -118 89q-8 28 -8 162z" />
<glyph unicode="[" d="M501 126v1504q0 53 37 88.5t89 35.5h502q51 0 87.5 -36.5t36.5 -87.5q0 -79 -64 -108q-60 -19 -123 -37q-64 -28 -64 -106v-1002q0 -79 64 -108q62 -19 123 -37q64 -28 64 -106q0 -53 -36 -89.5t-88 -36.5h-502q-53 0 -89.5 36.5t-36.5 89.5z" />
<glyph unicode="\" d="M0 1630q0 53 36.5 88.5t89.5 35.5q124 0 213 -88l1327 -1327q89 -89 88 -213q0 -53 -36 -89.5t-88 -36.5q-126 0 -215 89l-1326 1326q-89 89 -89 215z" />
<glyph unicode="]" d="M501 126q0 77 64 106q62 19 123 37q64 28 64 108v1002q0 77 -64 106q-60 19 -123 37q-64 29 -64 108q0 53 37 88.5t89 35.5h502q51 0 87.5 -36.5t36.5 -87.5v-1504q0 -53 -36 -89.5t-88 -36.5h-502q-53 0 -89.5 36.5t-36.5 89.5z" />
<glyph unicode="^" d="M501 1379q0 -53 37 -89.5t89 -36.5q66 0 154.5 44t96.5 44q6 0 94.5 -44t156.5 -44q53 0 88.5 36.5t35.5 89.5q0 132 -121.5 253.5t-253.5 121.5t-254.5 -121.5t-122.5 -253.5z" />
<glyph unicode="_" d="M0 126q0 53 36.5 89t89.5 36h1504q51 0 87.5 -37t36.5 -88q0 -53 -36 -89.5t-88 -36.5h-1504q-53 0 -89.5 36.5t-36.5 89.5z" />
<glyph unicode="`" d="M752 1630q0 53 36.5 88.5t89.5 35.5q132 0 253.5 -121.5t121.5 -253.5q0 -53 -36 -89.5t-88 -36.5q-134 0 -255.5 121.5t-121.5 255.5z" />
<glyph unicode="a" d="M0 126q0 -53 36.5 -89.5t89.5 -36.5h251q126 0 126 185q0 23 -2 66t-2 66q0 184 127 184h1h502q126 0 126 -184q0 -23 -2 -66.5t-2 -65.5q0 -185 128 -185h251q53 0 88.5 36.5t35.5 89.5v1003q0 124 -88 212l-325 325q-88 88 -212 88h-502q-126 0 -214 -88l-324 -325 q-89 -89 -89 -212v-1003zM501 878v251q0 132 122.5 253.5t254.5 121.5t253.5 -122t121.5 -253v-251q0 -53 -36 -89.5t-88 -36.5h-502q-53 0 -89.5 36.5t-36.5 89.5z" />
<glyph unicode="b" d="M0 126q0 -53 36.5 -89.5t89.5 -36.5h1253q132 0 253.5 122.5t121.5 254.5v249q0 68 -44 156t-44 94q0 8 44 96.5t44 156.5v250q0 132 -121.5 253.5t-253.5 121.5h-1253q-53 0 -89.5 -36t-36.5 -88v-1504zM501 377v249q0 53 37 89.5t89 36.5h502q53 0 88.5 -37t35.5 -89 v-249q0 -53 -36 -89.5t-88 -36.5h-502q-53 0 -89.5 36.5t-36.5 89.5zM501 1129v250q0 53 37 89t89 36h502q51 0 87.5 -37t36.5 -88v-250q0 -53 -36 -90t-88 -37h-502q-53 0 -89.5 37t-36.5 90z" />
<glyph unicode="c" d="M0 626v503q0 124 89 212l324 325q88 88 214 88h752q132 0 253.5 -121.5t121.5 -253.5q0 -53 -36 -89.5t-88 -36.5h-251q-79 0 -107 64q-19 62 -38 122q-28 65 -105 65h-251q-132 0 -254.5 -122t-122.5 -253v-503q0 -132 122.5 -253.5t254.5 -121.5h251q77 0 105 64 q19 60 38 122q28 64 107 64h251q51 0 87.5 -36.5t36.5 -87.5q0 -132 -121.5 -254.5t-253.5 -122.5h-752q-126 0 -214 89l-324 324q-89 89 -89 213z" />
<glyph unicode="d" d="M0 126q0 -53 36.5 -89.5t89.5 -36.5h1003q124 0 212 89l325 324q89 89 88 213v501q0 126 -88 214l-325 325q-88 88 -212 88h-1003q-53 0 -89.5 -36.5t-36.5 -89.5v-1502zM501 377v1000q0 53 37 90t89 37h251q132 0 253.5 -122.5t121.5 -254.5v-501q0 -132 -121.5 -253.5 t-253.5 -121.5h-251q-53 0 -89.5 36.5t-36.5 89.5z" />
<glyph unicode="e" d="M0 126v1502q0 53 36.5 89.5t89.5 36.5h1504q53 0 88.5 -36.5t35.5 -89.5q0 -51 -36.5 -87.5t-87.5 -36.5h-1003q-53 0 -89.5 -37t-36.5 -90v-248q0 -53 37 -90t89 -37h752q51 0 88 -36.5t37 -87.5q0 -53 -36 -89.5t-89 -36.5h-752q-53 0 -89.5 -37t-36.5 -89v-249 q0 -53 37 -89.5t89 -36.5h1003q51 0 87.5 -37t36.5 -88q0 -53 -36 -89.5t-88 -36.5h-1504q-53 0 -89.5 36.5t-36.5 89.5z" />
<glyph unicode="f" d="M0 126v1502q0 53 36.5 89.5t89.5 36.5h1504q53 0 88.5 -36.5t35.5 -89.5q0 -51 -36.5 -87.5t-87.5 -36.5h-1003q-53 0 -89.5 -37t-36.5 -90v-248q0 -53 37 -90t89 -37h752q51 0 88 -36.5t37 -87.5q0 -53 -36 -89.5t-89 -36.5h-752q-53 0 -89.5 -37t-36.5 -89v-500 q0 -53 -35.5 -89.5t-88.5 -36.5h-251q-53 0 -89.5 36.5t-36.5 89.5z" />
<glyph unicode="g" d="M0 626q0 -124 89 -213l324 -324q89 -89 214 -89h1003q53 0 88.5 36.5t35.5 89.5v752q0 51 -36.5 87.5t-87.5 36.5h-501q-53 0 -90 -35.5t-37 -88.5q0 -79 64 -107q62 -19 123 -38q64 -28 64 -107v-249q0 -53 -36 -89.5t-88 -36.5h-251q-132 0 -254.5 121.5t-122.5 253.5 v501q0 188 217 328q75 49 160 49h752q51 0 87.5 36.5t36.5 87.5q0 53 -36 89.5t-88 36.5h-1003q-126 0 -214 -88l-324 -325q-89 -88 -89 -214v-501z" />
<glyph unicode="h" d="M0 126q0 -53 36.5 -89.5t89.5 -36.5h251q53 0 88.5 36.5t35.5 89.5v500q0 53 37 89.5t89 36.5h502q53 0 88.5 -37t35.5 -89v-500q0 -53 36.5 -89.5t89.5 -36.5h251q53 0 88.5 36.5t35.5 89.5v1502q0 53 -36 89.5t-88 36.5h-251q-53 0 -89.5 -36.5t-36.5 -89.5v-499 q0 -53 -36 -90t-88 -37h-502q-53 0 -89.5 37t-36.5 90v499q0 53 -35.5 89.5t-88.5 36.5h-251q-53 0 -89.5 -36.5t-36.5 -89.5v-1502z" />
<glyph unicode="i" d="M251 126q0 126 184 126q23 0 66 -1.5t66 -1.5q185 0 185 128v1000q0 128 -185 128q-23 0 -66 -1.5t-66 -1.5q-184 0 -184 126q0 53 36.5 89.5t89.5 36.5h1253q53 0 88.5 -36.5t35.5 -89.5q0 -126 -185 -126q-23 0 -66 1.5t-65 1.5q-185 0 -185 -128v-1000 q0 -128 185 -128q23 0 66 1.5t65 1.5q185 0 185 -126q0 -53 -36 -89.5t-88 -36.5h-1253q-53 0 -89.5 36.5t-36.5 89.5z" />
<glyph unicode="j" d="M0 377v249q0 53 36.5 89.5t89.5 36.5h251q126 0 126 -185q0 -23 -2 -66t-2 -66q0 -184 127 -184h1h502q53 0 88.5 36.5t35.5 89.5v1251q0 53 36.5 89.5t89.5 36.5h251q53 0 88.5 -36.5t35.5 -89.5v-1251q0 -132 -121.5 -254.5t-253.5 -122.5h-1002q-134 0 -255.5 121.5 t-121.5 255.5z" />
<glyph unicode="k" d="M0 126q0 -53 36.5 -89.5t89.5 -36.5h251q126 0 126 185q0 23 -2 66t-2 66q0 184 127 184h1l752 -501h251q53 0 88.5 36.5t35.5 89.5q0 124 -88 213l-449 449q-38 38 -38 88q0 53 38 91l449 448q88 89 88 213q0 53 -36 89.5t-88 36.5h-251q-126 0 -215 -88l-574 -575 q-28 -28 -51 -28q-38 0 -38 66v499q0 53 -35.5 89.5t-88.5 36.5h-251q-53 0 -89.5 -36.5t-36.5 -89.5v-1502z" />
<glyph unicode="l" d="M0 126v1502q0 53 36.5 89.5t89.5 36.5h251q53 0 88.5 -36.5t35.5 -89.5v-1251q0 -53 37 -89.5t89 -36.5h1003q51 0 87.5 -37t36.5 -88q0 -53 -36 -89.5t-88 -36.5h-1504q-53 0 -89.5 36.5t-36.5 89.5z" />
<glyph unicode="m" d="M0 126q0 -53 36.5 -89.5t89.5 -36.5h251q53 0 88.5 36.5t35.5 89.5v752q0 64 38 64q19 0 70 -49q72 -68 109 -92q75 -49 160 -49q81 0 158 49q40 26 110 92q51 49 69 49q38 0 38 -64v-752q0 -53 36.5 -89.5t89.5 -36.5h251q53 0 88.5 36.5t35.5 89.5v1502q0 53 -36 89.5 t-88 36.5h-251q-107 0 -207 -85q-21 -17 -155 -154q-83 -85 -139 -85q-58 0 -141 85q-134 138 -155 154q-100 85 -205 85h-251q-53 0 -89.5 -36.5t-36.5 -89.5v-1502z" />
<glyph unicode="n" d="M0 126q0 -53 36.5 -89.5t89.5 -36.5h251q53 0 88.5 36.5t35.5 89.5v626q0 64 38 64q23 0 51 -28l699 -699q64 -64 160 -81q43 -8 181 -8q53 0 88.5 36.5t35.5 89.5v1504q0 51 -36.5 87.5t-87.5 36.5h-251q-53 0 -89.5 -36t-36.5 -88v-628q0 -64 -38 -64q-23 0 -51 29 l-699 699q-64 64 -160 81q-38 7 -150 7h-29q-53 0 -89.5 -36t-36.5 -88v-1504z" />
<glyph unicode="o" d="M0 377q0 -134 121.5 -255.5t255.5 -121.5h1002q132 0 253.5 122.5t121.5 254.5v1002q0 132 -121.5 253.5t-253.5 121.5h-1002q-132 0 -254.5 -121.5t-122.5 -253.5v-1002zM501 377v1002q0 53 37 89t89 36h502q51 0 87.5 -37t36.5 -88v-1002q0 -53 -36 -89.5t-88 -36.5 h-502q-53 0 -89.5 36.5t-36.5 89.5z" />
<glyph unicode="p" d="M0 126q0 -53 36.5 -89.5t89.5 -36.5h251q126 0 126 185q0 23 -2 66t-2 66q0 184 127 184h1h752q132 0 253.5 122.5t121.5 254.5v501q0 132 -121.5 253.5t-253.5 121.5h-1253q-53 0 -89.5 -36t-36.5 -88v-1504zM501 878v501q0 53 37 89t89 36h502q51 0 87.5 -37t36.5 -88 v-501q0 -53 -36 -89.5t-88 -36.5h-502q-53 0 -89.5 36.5t-36.5 89.5z" />
<glyph unicode="q" d="M0 377q0 -134 121.5 -255.5t255.5 -121.5h752q68 0 154.5 44.5t95.5 44.5q8 0 94.5 -44.5t156.5 -44.5q53 0 88.5 36.5t35.5 89.5q0 68 -44 154.5t-44 96.5q0 8 44 94.5t44 155.5v752q0 132 -121.5 253.5t-253.5 121.5h-1002q-132 0 -254.5 -121.5t-122.5 -253.5v-1002z M501 377v1002q0 53 37 89t89 36h502q51 0 87.5 -37t36.5 -88v-501q0 -53 -36 -89.5t-88 -36.5h-251q-66 0 -66 -38q0 -21 49 -72q34 -34 92 -107q49 -75 49 -158q0 -53 -35.5 -89.5t-88.5 -36.5h-251q-53 0 -89.5 36.5t-36.5 89.5z" />
<glyph unicode="r" d="M0 126q0 -53 36.5 -89.5t89.5 -36.5h251q126 0 126 185q0 23 -2 66t-2 66q0 184 127 184h1l752 -501h251q40 0 75 13q49 17 49 49q0 64 -128 196q-23 23 -158 155q-38 36 -38 88q0 58 85 141q141 138 154 153q85 101 85 207v377q0 132 -121.5 253.5t-253.5 121.5h-1253 q-53 0 -89.5 -36t-36.5 -88v-1504zM501 878v501q0 53 37 89t89 36h502q51 0 87.5 -37t36.5 -88v-250q0 -132 -121.5 -254.5t-253.5 -122.5h-251q-53 0 -89.5 36.5t-36.5 89.5z" />
<glyph unicode="s" d="M0 377q0 53 36.5 88.5t89.5 35.5h251q77 0 105 -64q19 -60 38 -122q28 -64 107 -64h502q53 0 88.5 36.5t35.5 89.5v249q0 53 -36 89.5t-88 36.5h-752q-85 0 -160 49q-217 139 -217 328v250q0 132 122.5 253.5t254.5 121.5h752q132 0 253.5 -121.5t121.5 -253.5 q0 -53 -36 -89.5t-89 -36.5h-250q-79 0 -108 64q-19 62 -38 122q-28 65 -105 65h-251q-53 0 -89.5 -36t-36.5 -89v-250q0 -53 37 -90t89 -37h752q83 0 158 -49q217 -139 217 -327v-249q0 -132 -121.5 -254.5t-253.5 -122.5h-1002q-134 0 -255.5 121.5t-121.5 255.5z" />
<glyph unicode="t" d="M251 1630q0 53 36.5 88.5t89.5 35.5h1253q51 0 87.5 -36.5t36.5 -87.5q0 -128 -185 -128q-23 0 -66 1.5t-65 1.5q-185 0 -185 -126v-1253q0 -53 -36 -89.5t-88 -36.5h-251q-53 0 -89.5 36.5t-36.5 89.5v1253q0 126 -185 126q-23 0 -66 -1.5t-66 -1.5q-184 0 -184 128z " />
<glyph unicode="u" d="M0 377v1253q0 53 36.5 88.5t89.5 35.5h251q51 0 87.5 -36.5t36.5 -87.5v-1253q0 -53 37 -89.5t89 -36.5h502q53 0 88.5 36.5t35.5 89.5v1253q0 53 36.5 88.5t89.5 35.5h251q51 0 87.5 -36.5t36.5 -87.5v-1253q0 -132 -121.5 -254.5t-253.5 -122.5h-1002 q-134 0 -255.5 121.5t-121.5 255.5z" />
<glyph unicode="v" d="M0 878v752q0 53 36.5 88.5t89.5 35.5h251q51 0 87.5 -36.5t36.5 -87.5v-501q0 -85 49 -161q138 -216 326 -216h2q187 0 326 216q49 75 49 161v501q0 53 36.5 88.5t89.5 35.5h251q51 0 87.5 -36.5t36.5 -87.5v-752q0 -126 -88 -215l-575 -574q-89 -89 -213 -89 q-126 0 -215 89l-574 574q-89 89 -89 215z" />
<glyph unicode="w" d="M0 126q0 -53 36.5 -89.5t89.5 -36.5h251q106 0 205 85q21 17 155 154q83 85 141 85q57 0 139 -85q134 -138 155 -154q100 -85 207 -85h251q53 0 88.5 36.5t35.5 89.5v1504q0 51 -36.5 87.5t-87.5 36.5h-251q-53 0 -89.5 -36t-36.5 -88v-752q0 -66 -38 -66q-19 0 -69 49 q-70 66 -110 92q-77 49 -158 49q-85 0 -160 -49q-38 -24 -109 -92q-51 -49 -70 -49q-38 0 -38 66v752q0 51 -36.5 87.5t-87.5 36.5h-251q-53 0 -89.5 -36t-36.5 -88v-1504z" />
<glyph unicode="x" d="M0 126q0 -96 89 -118q28 -8 162 -8q126 0 214 89l323 324q35 35 87 35h3q53 0 89 -35l322 -324q64 -64 160 -81q43 -8 181 -8q94 0 117 89q7 25 7 134v28q0 126 -88 214l-325 323q-36 36 -35 88q0 55 35 91l325 322q64 64 81 160q7 43 7 181q0 94 -88 117q-25 7 -134 7 h-28q-126 0 -215 -88l-322 -325q-35 -35 -86 -35h-3q-55 0 -90 35l-323 325q-64 64 -160 81q-38 7 -150 7h-29q-96 0 -118 -88q-8 -28 -8 -162q0 -126 89 -215l324 -322q35 -35 35 -88q0 -56 -35 -91l-324 -323q-64 -64 -81 -160q-8 -43 -8 -179z" />
<glyph unicode="y" d="M251 1129v501q0 53 36.5 88.5t89.5 35.5h250q51 0 88 -36.5t37 -87.5v-501q0 -53 36.5 -90t89.5 -37h251q53 0 88.5 37t35.5 90v501q0 53 36.5 88.5t89.5 35.5h251q51 0 87.5 -36.5t36.5 -87.5v-501q0 -132 -121.5 -254.5t-253.5 -122.5q-53 0 -89.5 -37t-36.5 -89v-500 q0 -53 -36 -89.5t-88 -36.5h-251q-53 0 -89.5 36.5t-36.5 89.5v500q0 53 -36 89.5t-89 36.5q-134 0 -255 121.5t-121 255.5z" />
<glyph unicode="z" d="M0 251q0 126 89 214l825 824q88 88 88 151q0 33 -49 50q-36 14 -75 14h-752q-53 0 -89.5 36.5t-36.5 89.5t36.5 88.5t89.5 35.5h1504q94 0 117 -88q7 -25 7 -134v-28q0 -126 -88 -215l-826 -824q-88 -88 -88 -151q0 -33 49 -50q38 -13 77 -13h752q51 0 87.5 -37t36.5 -88 q0 -53 -36 -89.5t-88 -36.5h-1504q-96 0 -118 89q-8 28 -8 162z" />
<glyph unicode="{" d="M413 878q0 -9 44 -96t44 -155q0 -34 -2 -99t-2 -98q0 -115 40 -189q30 -57 126 -152q89 -89 213 -89h253q53 0 88.5 36.5t35.5 89.5l-251 251v250q0 68 -44 155t-44 96q0 8 44 94.5t44 156.5v250q0 77 64 106q60 19 123 37q64 29 64 108q0 51 -37 87.5t-87 36.5h-253 q-124 0 -213 -88q-96 -94 -126 -151q-40 -75 -40 -190q0 -32 2 -98t2 -98q0 -70 -44 -156.5t-44 -94.5z" />
<glyph unicode="|" d="M752 126v1504q0 51 36.5 87.5t87.5 36.5q53 0 89.5 -36t36.5 -88v-1504q0 -53 -36.5 -89.5t-89.5 -36.5t-88.5 36.5t-35.5 89.5z" />
<glyph unicode="}" d="M501 126q0 -53 37 -89.5t89 -36.5h251q124 0 213 89q96 96 126 152q40 73 40 189q0 32 -2 97.5t-2 99.5q0 68 44 155t44 96q0 8 -44 94.5t-44 156.5q0 32 2 97.5t2 98.5q0 115 -40 190q-30 57 -126 151q-89 88 -213 88h-251q-53 0 -89.5 -36t-36.5 -88q0 -79 64 -108 q60 -19 123 -37q64 -28 64 -106v-250q0 -70 44 -156.5t44 -94.5q0 -9 -44 -96t-44 -155v-250q0 -79 -64 -108q-60 -19 -123 -37q-64 -28 -64 -106z" />
<glyph unicode="~" d="M251 1379q0 -53 36.5 -89.5t89.5 -36.5q81 0 183.5 68t129.5 68q26 0 128.5 -68t183.5 -68h127q132 0 253.5 122.5t121.5 254.5q0 51 -37 87.5t-88 36.5q-83 0 -185.5 -68t-128.5 -68t-129 68t-184 68h-125q-132 0 -254 -121.5t-122 -253.5z" />
<glyph unicode="&#xa0;" />
<glyph unicode="&#xa9;" d="M0 377q0 -134 121.5 -255.5t255.5 -121.5h1002q132 0 253.5 122.5t121.5 254.5v1002q0 132 -121.5 253.5t-253.5 121.5h-1002q-132 0 -254.5 -121.5t-122.5 -253.5v-1002zM251 377v1002q0 53 36.5 89t89.5 36h1002q51 0 88 -37t37 -88v-1002q0 -53 -36 -89.5t-89 -36.5 h-1002q-53 0 -89.5 36.5t-36.5 89.5zM501 627v502q0 53 37 88.5t89 35.5h502q51 0 87.5 -37t36.5 -87q0 -128 -185 -129q-23 0 -66 2t-66 2q-185 0 -184 -126q0 -128 184 -128q23 0 66.5 2t65.5 2q185 0 185 -127q0 -53 -36 -89.5t-88 -36.5h-502q-53 0 -89.5 37t-36.5 89z " />
<glyph unicode="&#xad;" d="M251 878q0 53 36.5 88.5t89.5 35.5h1002q51 0 88 -36.5t37 -87.5q0 -53 -36 -89.5t-89 -36.5h-1002q-53 0 -89.5 36.5t-36.5 89.5z" />
<glyph unicode="&#xae;" d="M0 377q0 -134 121.5 -255.5t255.5 -121.5h1002q132 0 253.5 122.5t121.5 254.5v1002q0 132 -121.5 253.5t-253.5 121.5h-1002q-132 0 -254.5 -121.5t-122.5 -253.5v-1002zM251 377v1002q0 53 36.5 89t89.5 36h1002q51 0 88 -37t37 -88v-1002q0 -53 -36 -89.5t-89 -36.5 h-1002q-53 0 -89.5 36.5t-36.5 89.5zM501 627v502q0 53 37 88.5t89 35.5h502q51 0 87.5 -37t36.5 -87q0 -128 -185 -129q-23 0 -66 2t-66 2q-185 0 -184 -126v-251q0 -53 -36 -89.5t-89 -36.5t-89.5 37t-36.5 89z" />
<glyph unicode="&#xdf;" d="M0 126v1504q0 51 36.5 87.5t87.5 36.5h1506q51 0 87.5 -36.5t36.5 -87.5v-1504q0 -53 -36 -89.5t-88 -36.5h-1506q-53 0 -88.5 36.5t-35.5 89.5z" />
<glyph unicode="&#xe5;" d="M0 126v501q0 126 185 127q23 0 66 -2t66 -2q185 0 184 128v501q0 85 49 160q139 215 328 215q187 0 326 -215q49 -75 49 -160v-501q0 -128 185 -128q23 0 66 2t65 2q185 0 185 -127v-501q0 -53 -36 -89.5t-88 -36.5h-1506q-53 0 -88.5 36.5t-35.5 89.5z" />
<glyph unicode="&#x2000;" horiz-adv-x="877" />
<glyph unicode="&#x2001;" horiz-adv-x="1754" />
<glyph unicode="&#x2002;" horiz-adv-x="877" />
<glyph unicode="&#x2003;" horiz-adv-x="1754" />
<glyph unicode="&#x2004;" horiz-adv-x="584" />
<glyph unicode="&#x2005;" horiz-adv-x="438" />
<glyph unicode="&#x2006;" horiz-adv-x="292" />
<glyph unicode="&#x2007;" horiz-adv-x="292" />
<glyph unicode="&#x2008;" horiz-adv-x="219" />
<glyph unicode="&#x2009;" horiz-adv-x="350" />
<glyph unicode="&#x200a;" horiz-adv-x="97" />
<glyph unicode="&#x2010;" d="M251 878q0 53 36.5 88.5t89.5 35.5h1002q51 0 88 -36.5t37 -87.5q0 -53 -36 -89.5t-89 -36.5h-1002q-53 0 -89.5 36.5t-36.5 89.5z" />
<glyph unicode="&#x2011;" d="M251 878q0 53 36.5 88.5t89.5 35.5h1002q51 0 88 -36.5t37 -87.5q0 -53 -36 -89.5t-89 -36.5h-1002q-53 0 -89.5 36.5t-36.5 89.5z" />
<glyph unicode="&#x2012;" d="M251 878q0 53 36.5 88.5t89.5 35.5h1002q51 0 88 -36.5t37 -87.5q0 -53 -36 -89.5t-89 -36.5h-1002q-53 0 -89.5 36.5t-36.5 89.5z" />
<glyph unicode="&#x2013;" horiz-adv-x="1775" d="M251 878q0 53 30 88.5t73 35.5h819q42 0 72 -36.5t30 -87.5q0 -53 -29.5 -89.5t-72.5 -36.5h-819q-43 0 -73 36.5t-30 89.5z" />
<glyph unicode="&#x2014;" horiz-adv-x="2799" d="M251 878q0 53 59.5 88.5t146.5 35.5h1638q83 0 143.5 -36.5t60.5 -87.5q0 -53 -59 -89.5t-145 -36.5h-1638q-87 0 -146.5 36.5t-59.5 89.5z" />
<glyph unicode="&#x2018;" d="M752 878q0 -53 36.5 -89.5t89.5 -36.5h251q53 0 88.5 36.5t35.5 89.5v251q0 77 -64 105q-60 19 -123 38q-64 28 -64 107q0 77 64 106q62 19 123 37q64 29 64 108q0 51 -37 87.5t-87 36.5q-132 0 -254.5 -121.5t-122.5 -253.5v-501z" />
<glyph unicode="&#x2019;" d="M501 878q0 -53 37 -89.5t89 -36.5q132 0 253.5 122.5t121.5 254.5v501q0 53 -36.5 88.5t-89.5 35.5h-249q-53 0 -89.5 -36t-36.5 -88v-251l251 -250q0 -79 -64 -108q-60 -19 -123 -38q-64 -28 -64 -105z" />
<glyph unicode="&#x201c;" d="M251 878q0 -53 36.5 -89.5t89.5 -36.5h250q53 0 89 36.5t36 89.5v251q0 77 -64 105q-60 19 -123 38q-64 28 -64 107q0 77 64 106q60 19 123 37q64 28 64 108q0 51 -37 87.5t-88 36.5q-132 0 -254 -121.5t-122 -253.5v-501zM1002 878q0 -53 37 -89.5t90 -36.5h250 q53 0 89 36.5t36 89.5v251q0 77 -65 105q-60 19 -122 38q-64 28 -64 107q0 77 64 106q62 19 122 37q65 29 65 108q0 51 -37 87.5t-88 36.5q-132 0 -254.5 -121.5t-122.5 -253.5v-501z" />
<glyph unicode="&#x201d;" d="M251 878q0 -53 36.5 -89.5t89.5 -36.5q132 0 253.5 122.5t121.5 254.5v501q0 51 -37 87.5t-88 36.5h-250q-53 0 -89.5 -36t-36.5 -88v-251l250 -250q0 -79 -64 -108q-60 -19 -122 -38q-64 -28 -64 -105zM1002 878q0 -53 37 -89.5t90 -36.5q132 0 253.5 122.5t121.5 254.5 v501q0 51 -37 87.5t-88 36.5h-250q-53 0 -90 -36t-37 -88v-251l251 -250q0 -79 -64 -108q-60 -19 -123 -38q-64 -28 -64 -105z" />
<glyph unicode="&#x2022;" d="M501 627v251q0 53 37 88.5t89 35.5h249q53 0 89.5 -35.5t36.5 -88.5v-251q0 -53 -36.5 -89.5t-89.5 -36.5h-249q-53 0 -89.5 37t-36.5 89z" />
<glyph unicode="&#x202f;" horiz-adv-x="350" />
<glyph unicode="&#x205f;" horiz-adv-x="438" />
<glyph unicode="&#x2122;" d="M0 1630q0 51 36.5 87.5t87.5 36.5h503q51 0 88 -36.5t37 -87.5q0 -79 -64 -108q-60 -19 -123 -37q-64 -28 -64 -106v-501q0 -53 -35.5 -89.5t-88.5 -36.5t-89.5 36.5t-36.5 89.5v501q0 77 -64 106q-60 19 -123 37q-64 29 -64 108zM1002 878v752q0 53 37 88.5t90 35.5 q77 0 105 -64l38 -121q28 -65 107 -65l251 250q51 0 87.5 -36.5t36.5 -87.5v-752q0 -53 -36 -89.5t-88 -36.5q-128 0 -128 186q0 23 1.5 65.5t1.5 64.5q0 185 -126 185q-128 0 -128 -185q0 -23 2 -66t2 -66q0 -185 -126 -184q-53 0 -90 36.5t-37 89.5z" />
<glyph unicode="&#x25fc;" horiz-adv-x="1752" d="M0 0v1752h1752v-1752h-1752z" />
</font>
</defs>
</svg>
