<?xml version="1.0" standalone="no"?>
<!DOCTYPE svg PUBLIC "-//W3C//DTD SVG 1.1//EN" "http://www.w3.org/Graphics/SVG/1.1/DTD/svg11.dtd" >
<svg xmlns="http://www.w3.org/2000/svg">
<metadata></metadata>
<defs>
<font id="mars_attacksregular" horiz-adv-x="381" >
<font-face units-per-em="2048" ascent="1638" descent="-410" />
<missing-glyph horiz-adv-x="145" />
<glyph horiz-adv-x="2048" />
<glyph horiz-adv-x="2048" />
<glyph unicode="&#xd;" horiz-adv-x="1080" />
<glyph unicode=" "  horiz-adv-x="145" />
<glyph unicode="&#x09;" horiz-adv-x="145" />
<glyph unicode="&#xa0;" horiz-adv-x="145" />
<glyph unicode="!" horiz-adv-x="252" d="M44.5 71.5q-6.5 4.5 9.5 17.5q15 12 35 16.5l20 4.5l5 -19t-3 -31q-8 -13 -19 -11.5t-25 -7.5q-38 -26 -22 12q6 14 -0.5 18.5zM62 225q-8 4 2 30t15 50t2.5 80t0.5 75q1 18 14 67t15 73q2 38 -4 55q-5 11 0 42t17 47q11 15 33.5 23.5t40.5 14.5q17 6 29.5 -6.5 l12.5 -12.5l-3 -9t-3 -23q0 -15 -26 -112t-29 -115q-7 -37 -2 -69q3 -23 -9.5 -65.5t-20.5 -59.5q-8 -18 -8.5 -50t-1.5 -46q-3 -15 -16 -6.5t-27 8.5q-15 0 -13.5 -9t-9.5 -5q-12 3 -6.5 10.5t-2.5 12.5z" />
<glyph unicode="$" horiz-adv-x="355" d="M14 83q0 12 1.5 41.5t-1.5 44.5q-4 15 3.5 17t16.5 32q9 28 33 31.5t36 -0.5q11 -6 9 -15t6 -28q8 -21 20 2t17 56q7 56 -23 77q-8 4 -34 55q-13 24 -11 42.5t7 48.5q4 30 6 56t20 38q24 15 43 63q5 15 32 25.5t54 15.5q26 4 44.5 -12t33.5 -26q15 -11 20.5 -25.5 l5.5 -14.5l1 -6.5t1 -24.5q-4 -42 -29 -61q-11 -9 -6 -12.5t4 -9.5q-2 -10 -37 -1q-16 3 -21 15.5t-23 20.5q-19 8 -27.5 -9t-14.5 -31q-7 -14 11.5 -39.5t42.5 -52.5t25 -72.5t3 -96.5q0 -52 -41 -106t-55 -60q-28 -14 -53 -18q-27 -6 -65 20q-19 11 -28 9q-27 -7 -27 11z " />
<glyph unicode="," horiz-adv-x="105" d="M-48 -57q-2 3 18 28.5t23 28.5q4 5 18 18q13 11 17 33q5 28 13 38q9 12 32 12q13 0 18.5 -14l5.5 -14l1.5 -3t1.5 -11q0 -7 -24 -39q-7 -10 -7 -26q-2 -21 -13 -43q-8 -14 -13 -7.5t-2 13.5q3 8 -2 15.5t-11 1.5q-21 -18 -25 -18.5t-35 -20.5q-5 -2 -16 8z" />
<glyph unicode="." horiz-adv-x="103" d="M22 85q17 19 27 22t22.5 -14.5l12.5 -17.5l1 -4t8 -15q6 -12 -3.5 -14.5t-12.5 -14.5q-2 -5 -21 5q-9 3 -19 -10q-4 -5 -12 21q-12 33 -3 42z" />
<glyph unicode=":" horiz-adv-x="87" d="M5 100q6 10 29 8l23 -3l17 2l-1 -10.5t2 -17.5q4 -14 -10 -25q-7 -6 -10 1.5t-8 4.5t-6 -27q-1 -11 -24 -12q-11 -1 -7 10.5t-4 26.5q-11 21 -1 42zM7 264q-6 17 6 38q6 10 8.5 17t17.5 10q15 2 29.5 -16.5l14.5 -18.5l-1.5 -11t-10.5 -22q-8 -12 -19 -6q-16 6 -22 3 q-18 -9 -23 6z" />
<glyph unicode=";" horiz-adv-x="88" d="M-37 -48q-9 -6 3.5 19t25.5 46q12 22 12 28.5t2 15.5q1 9 14 31t28 29q14 6 17 1.5l3 -4.5l5 -16t2 -31q-5 -22 -30 -58q-7 -10 -4.5 6t-8.5 -5q-12 -21 -14 -22t-5 -19q-5 -22 -24 -14q-10 5 -26 -7zM24 281q-2 39 7 44q10 5 18.5 8.5l8.5 3.5l16 -4l4 -15t6 -27 q0 -12 -18 -18q-21 -8 -24 -11q-15 -18 -18 19z" />
<glyph unicode="?" horiz-adv-x="320" d="M26 702q-7 39 17 56q24 16 83.5 17.5t85.5 -17.5q25 -21 59 -80t3 -90q-33 -32 -39.5 -44t-22.5 -44q-17 -33 -25.5 -46.5t-17.5 -37.5t-18 -53.5t-7 -62.5q2 -34 6 -69.5t-21 -21.5q-27 14 -22.5 -4t-13.5 -14q-18 3 -16.5 7.5t0.5 22.5t-4.5 34t1.5 66q3 48 16.5 57 t21.5 42q6 33 20.5 59.5t22.5 60.5q6 33 31 74.5t7 63.5q-19 21 -17.5 24t-16.5 -6q-20 -10 -16.5 3.5t-19.5 1.5q-24 -12 -28 -9t-9 -33q-6 -36 -5 -29.5t-12 9.5q-14 3 -16 -11t-12 -2q-11 12 -10 24.5l1 12.5zM57.5 44.5q11.5 18.5 20.5 31.5q14 18 38 5q19 -10 13 -45 q-4 -19 -28 -9q-15 6 -19.5 1t-19.5 -3q-16 1 -4.5 19.5z" />
<glyph unicode="A" horiz-adv-x="411" d="M13 19l15 41q14 42 9 63q-13 46 -6 59q6 11 34.5 56t25.5 58q-4 12 -5 13t3 19q3 18 8 40.5t5 35.5q0 12 5 14t9 16q7 26 29 56q7 9 17 43q5 18 7.5 38t13.5 35q9 15 14.5 18.5t11.5 15.5q15 34 17 43q1 11 6.5 34.5t18.5 32.5q19 11 46 11q6 0 13 -1q21 -2 25 -3t16 0 q11 0 29.5 -7.5t22.5 -25.5q3 -18 -1 -25.5t-2 -21.5q2 -13 6 -13q2 0 2 -5q0 -6 -3 -22q-7 -28 -4 -38t0 -24q-4 -15 -9 -22t-4 -21q0 -15 3.5 -25t-2.5 -29q-6 -21 -9 -81t-3 -84q-1 -25 -4.5 -40t-6.5 -36q-3 -22 0 -44t3 -40q0 -51 -11 -65q-9 -12 -15.5 -6t-16.5 -3 q-20 -16 -35 -1q-23 22 -36 22q-32 -2 -18 28q4 11 10 44.5t-3 33.5q-11 0 -36 -2.5t-30 -14.5q-6 -13 -16 -65t-22 -60q-12 -9 -18.5 -8.5t-15.5 -11.5q-11 -12 -10.5 -14t-18.5 -2q-21 0 -21 -5t-12 -10q-15 -6 -23 -6q-3 0 -5 1q-5 2 -5 5zM222 360l10 -3q4 -1 6 -1 q6 0 11 3q8 5 10 26q1 12 1 40l1 28l-17 -21q-17 -22 -19 -37q-3 -16 -3 -21v-14z" />
<glyph unicode="B" horiz-adv-x="453" d="M22 92q12 52 21 70q8 17 16.5 63t11.5 73q1 26 8.5 107t27.5 111q19 29 16 43t-1 31q2 14 -2 50q-1 5 -1 11q0 30 21 58q21 27 63 27q7 0 15 -1q54 -5 53 -5l47 -6q46 -5 80 -23q33 -20 44 -112q3 -27 3 -47q0 -50 -19 -63q-27 -20 -41.5 -10.5t-12.5 -9.5 q1 -19 29.5 -30.5t35.5 -38.5q3 -14 3 -39t-3 -60q-6 -70 -41 -126q-60 -93 -155 -128q-28 -10 -45 -10q-14 0 -21 7q-15 16 -33 13t-23.5 -9.5t-17.5 -6.5q-13 0 -15 7.5t-18 6.5q-16 -2 -24 -10q-5 -5 -11 -5q-4 0 -10 3q-7 3 -7 19q0 15 6 40zM166 228q-3 -17 -2 -30 q0 -35 20 -39q7 -1 14 -1q24 0 58 14q44 18 58 51q7 19 7 45q0 17 -3 36l-8 49l-4 15q-5 14 -14 5q-20 -19 -24 -14q-24 20 -41 19q-27 -2 -41 -54q-10 -33 -20 -96zM228 565l4 -26l11 -5q3 -2 7 -2q8 0 17 9q12 13 17 39l6 25l-27 3q-6 1 -11 1q-17 0 -22 -8q-4 -6 -4 -18 q0 -8 2 -18z" />
<glyph unicode="C" horiz-adv-x="308" d="M16 152q4 25 5 58q0 15 -1 32v9q0 51 20 135q22 91 33 109q12 17 51.5 106.5t52.5 120.5q12 30 25.5 26.5t46.5 0.5q32 4 48.5 18t46.5 19h6q24 0 26 -32l2 -36l2 -7q0 -7 -3 -27q-5 -27 -14 -39t-24 -37q-16 -26 -19 -35t-15 -16q-10 -6 -29 35q-6 13 -20 -22 q-6 -15 -5.5 -26.5t-11.5 -23.5q-27 -24 -36 -60q-4 -15 -11 -52t-15 -57q-9 -21 -15 -85q-2 -22 -2 -37q0 -31 8 -37q12 -11 40 28q12 18 42 5q7 -3 7 -26q-1 -19 -5 -51q-10 -72 -12 -92q-4 -21 -20.5 -29.5t-23.5 -19.5q-9 -11 -8.5 -18t-8.5 -17q-6 -5 -11 -5 q-8 0 -15 12q-5 9 -62 30q-28 12 -36 29t-13 39q-6 22 -10 21t-13 9q-5 5 -5 20q-1 10 2 25z" />
<glyph unicode="D" horiz-adv-x="482" d="M22 11q-4 1 -4 10q0 15 12 54q20 61 31 88q9 26 41.5 139t43.5 154q6 24 6 58q0 24 -3 54q-3 31 -3 52q0 28 5 40q7 21 39 41.5t29 17.5q-4 -4 28 8t80 16h8q43 1 71 -29q32 -32 54 -78t22 -166q0 -3 -1 -6q0 -114 -16 -173q-18 -60 -66.5 -107.5t-61.5 -83.5 q-22 -58 -49 -58q-5 0 -10 2q-22 6 -41 -26q-17 -27 -43 2q-15 15 -18 9.5t-24 -18.5q-22 -12 -36 -12q-3 0 -6 1q-9 3 -19.5 10.5t-24.5 7.5q-15 0 -23.5 -5t-20.5 -2zM168 206q1 -1 4 -1q12 0 56 12q54 14 71 37q12 15 36.5 58.5t36.5 103.5q6 35 6 69q0 25 -4 51 q-7 46 -23 46q-5 0 -10 -3l-7 1h-1q-7 0 -18 -8q-22 -17 -32 -9q-9 6 -18 -6t-12 -21t-15 -91.5t-20 -98.5q-9 -17 -33 -77q-19 -46 -19 -59q0 -3 2 -4z" />
<glyph unicode="E" horiz-adv-x="404" d="M19 72q7 40 20 127t33 128q14 27 14 106q0 33 -2 75q-5 84 -5 128q0 31 2 43q5 27 31 30.5t55 -3.5q56 -15 104 -17q29 -3 37 3.5t34 28.5q12 10 21 10q11 -1 19 -13q15 -24 15 -23l7 -7q6 -8 13 -30q2 -9 2 -16q1 -12 -5 -22q-10 -16 -19 -11q-18 7 -31 -17 q-8 -13 -41 0q-10 3 -14.5 -5t-19.5 -16q-15 -9 -25.5 7t-34.5 19h-2q-20 0 -20 -53q1 -8 1 -17q4 -73 12 -88q21 -34 45 -34q8 0 16 4q20 9 27.5 18.5t18.5 13.5q10 3 15 -41q4 -37 4 -58v-8q-3 -23 -26 -14t-38 3q-21 -9 -45 8q-19 13 -36 -6q-15 -17 -17 -91v-11 q0 -63 20 -69q21 -6 38.5 -7.5t36.5 29.5q16 27 46 26q19 0 42 -10q16 -8 16 -27q-1 -14 -9 -34q-20 -48 -29 -72q-10 -25 -39 -25q-8 0 -16 2q-45 8 -46 -6q0 -8 -21 -8h-7q-28 2 -35 20q-12 23 -32 -11q-9 -15 -16 -15q-10 0 -17 26q-9 24 -24 10t-25 -19q-11 -6 -34 -4 q-17 1 -17 23q0 8 3 20z" />
<glyph unicode="F" horiz-adv-x="386" d="M18 96q8 23 8 60q0 17 -2 37q-1 17 -1 34q0 47 10 93q4 20 11 26.5t7 37.5q0 27 -0.5 52.5t9.5 55.5q6 20 6 48q0 12 -1 26q-4 45 -13 71q-4 11 -4 23q0 20 10 43q16 37 49 39q31 2 45 -1l42 -9t54.5 1.5t59.5 15.5q11 2 22 2l56 -13q41 -14 47 -45q8 -13 8 -25 q1 -13 -9 -26q-18 -24 -19 -24l-11 4q-12 5 -29 -4q-26 -16 -39 -6q-21 10 -29 2q-19 -19 -25 -18q-15 7 -20 8q-23 0 -21 -2q-5 1 -12 11h-1v0q-19 1 -23 -50q-2 -29 -3 -53q0 -18 2 -32q7 3 15.5 6.5t18.5 7.5q8 2 15 2q27 0 45 -32q22 -38 21 -63q0 -34 -23 -32 q-6 1 -10 8q-2 -1 -7 -1q-8 0 -25 -6.5t-24 -3.5q-1 0 -9 8q-8 -5 -24 12q-9 0 -10 -14q-3 -26 -7 -76q-2 -23 -3 -45q0 -23 3 -42q2 -18 2 -41q0 -26 -2 -60q-4 -64 -14 -82q-5 -9 -7 -8t-8 -6q-13 -19 -24 -4q-6 -4 -10 -1l-3.5 -3.5t-1.5 -2.5q-4 -5 -9 -5t-11 7 q-13 -4 -18 9q-10 6 -16.5 12t-14.5 13q-10 7 -13 16q-12 12 -12 29q0 8 2 16z" />
<glyph unicode="G" horiz-adv-x="430" d="M17 126q7 36 7 89t21.5 144t33.5 109q11 16 48.5 106t49.5 121q11 30 22.5 26t40.5 1q28 4 43 18t41 19q5 1 11 1q22 0 49 -10l35 -11l1 -3.5t-3 -30.5q-5 -27 -1.5 -52t-10.5 -45q-5 -7 -28 -12q-9 -2 -20 9t-21 9q-9 -2 -16 -16t-16 -16q-12 -3 -20 12t-19 9t-15.5 -26 t-9.5 -34q-6 -15 -6 -26.5t-11 -23.5q-24 -24 -33 -61q-4 -15 -11.5 -51.5t-15.5 -56.5q-9 -21 -17 -86q-3 -26 -3 -43q0 -26 7 -31q5 -5 51 6q4 1 13 -2t18 3q6 4 12 17t14 19q3 2 6 8t6 9q5 4 10.5 4t10.5 4q14 9 30 44.5t-11 43.5q-18 4 -17 -9t-11 -16t-12 2.5t-8 5.5 t-7 -6.5t-6 -7.5q-9 -2 -17.5 -7.5t-10.5 7.5q-3 12 -6 30.5t9 39.5q12 20 19.5 46t27.5 32q19 4 28 -14.5t34 -15.5q24 1 58 -2q37 -3 37 -59q0 -44 -44 -146q-45 -106 -76 -138q-22 -22 -78.5 -46t-62.5 -36q-7 -10 -7.5 -17.5t-8.5 -17.5q-5 -6 -10 -6q-7 0 -12 13 q-4 8 -52 31q-33 17 -41 67q-4 22 -7.5 21t-10.5 9q-4 5 -4 17q0 11 3 29z" />
<glyph unicode="H" horiz-adv-x="516" d="M36 -23q-3 -1 -5 -1q-7 0 -6 9q0 15 19 56q14 30 19 81.5t11 88.5t11 95t14 106t21.5 113.5t14.5 109.5v16q-1 33 -7 49q-8 20 7 41q9 13 21 16t27 10q10 4 23 21.5t25 17.5t54 -29q10 -7 20 -11t19 -13q18 -5 -1.5 -34t-31.5 -77q-13 -48 -23 -102q-7 -36 -7 -64 q0 -14 2 -26q2 -25 42 -28q32 3 52 18q45 33 45.5 138.5t13.5 155.5q10 38 39 34h3q15 0 63 -21q18 -9 18 -21q0 -8 -8 -18q-21 -24 -21 -76q0 -51 -11.5 -112t-27.5 -142q-17 -81 -23 -149.5t-8 -116.5q-2 -49 -3 -56.5t-10 -20.5q-6 -7 -20 -4t-26 -9q-28 -25 -55 -28.5 t-24 16.5q3 21 3 40.5v46.5q0 25 8 52t14 53q6 25 9.5 65.5t1.5 52.5q0 4 -3 7q-2 -2 -6 -10q-3 -10 -19.5 -9t-23.5 4q-7 -10 -7 -23q0 -18 -24 -16.5t-17 28.5q8 29 -16 41v0l-1 -1q-11 -7 -11.5 -64t-10.5 -94q-11 -37 -12 -88.5t-7 -81.5q-9 -36 -26.5 -22t-26.5 -2 q-9 -14 -27 -8.5t-27 13.5q-16 -15 -21 -17q-3 -1 -5 -1t-3 1q-2 2 -8 0z" />
<glyph unicode="I" horiz-adv-x="244" d="M12 9q-1 6 -1 11q0 8 2 17q2 11 6 53.5t5 61.5q0 19 18.5 53.5t23.5 58.5q5 22 2 30t-3 31q1 23 21 105q22 86 26 96q3 9 5 27.5t-4 24.5q-5 3 -5 44v34q2 74 13 103q7 20 10 20q1 0 2 -1q3 -7 59 -21q56 -15 60 -39t4 -150q0 -16 -3.5 -39t-3.5 -32q0 -10 -4 -11 t-10 -13q-7 -13 -9.5 -61t-2.5 -66q0 -19 -4 -17.5t-11 -11.5q-7 -15 -7 -85q0 -10 -1 -19q0 -53 3 -63q1 -6 -17 -33q-9 -15 -6.5 -18.5t-8.5 -9.5q-13 -9 -26 -35q-11 -18 -33 -28q-20 -9 -30 -8t-21 -8q-11 -8 -12.5 -12.5t-13.5 -8.5q-4 -1 -7 -1q-15 0 -16 21z" />
<glyph unicode="J" horiz-adv-x="470" d="M10 247q0 24 50 49q32 17 49 17q9 0 13 -5q12 -15 0 -37.5t-6 -49.5q12 -69 88 -69h9q39 2 50.5 33t27.5 63q32 62 32 132v8q-2 36 -5 53q-1 4 -1 11q0 19 7 57q9 46 9 91l-2 87q0 20 38 54q10 9 15 21.5t30 15.5h3q16 0 31 -18q16 -19 25 -19q10 0 10 -21q0 -26 -16 -85 q-13 -47 -15.5 -156.5t-4.5 -149.5q-3 -42 -30.5 -107.5t-40.5 -90.5q-15 -27 -25.5 -39t-18.5 -28q-15 -32 -30 -32q-33 0 -60 -27q-16 -14 -26 3q-5 9 -12.5 -1.5t-7.5 -25.5q-1 -9 -6 -9q-4 0 -9 4q-14 9 -15 20q-5 34 -42 12q-11 -7 -12.5 10.5t-1.5 31.5 q-2 12 -17.5 9.5l-15.5 -2.5l-9.5 5t-10.5 20q-1 14 -23.5 77.5t-23.5 87.5z" />
<glyph unicode="K" horiz-adv-x="394" d="M16 144q-2 7 -2 14q0 14 8 25q12 15 17 42.5t5 45.5q0 16 16 101t28 122q11 33 11 89v9v29q0 40 2 58q6 64 29 113q8 15 24 13.5t35 10.5q7 4 14 4q18 0 37 -25q9 -15 6.5 -23t-5.5 -36q-4 -28 -3 -29.5t4 -19.5q3 -29 -4 -42q-7 -14 -14 -47l-8 -34h2q2 -1 11 2 q8 3 12.5 26t10.5 41q6 17 11.5 36t14.5 22q9 2 26 45.5t32 62.5q13 18 31.5 14t27.5 -15t20 -22t17 -32q1 -5 1 -11q0 -23 -16 -65q-21 -54 -45 -87q-25 -33 -54.5 -101.5t-35.5 -86.5q-4 -11 -4 -25q0 -21 10 -48q12 -31 34 -78t27 -80q4 -26 4 -46t-4 -34 q-6 -18 -15.5 -24t-12.5 -21q-3 -17 -3 -19.5t-15 -20.5q-16 -18 -19 -16t-28 -8q-16 -6 -21 -6q-3 1 -2 3q3 6 -2 16q-6 11 -10 24t-7 24q-8 18 -8 80q-2 42 -17 71q-9 15 -10.5 -6.5t-4.5 -35.5q-4 -15 -6.5 -25t-14.5 -27q-12 -18 -24 -23.5t-17 -17.5q-5 -14 -1.5 -19 t-5.5 -14q-10 -9 -17.5 -7.5t-18.5 -10.5q-19 -21 -38 -19q-19 3 -2 53q6 15 -2 25t-6 36q1 26 -5 50z" />
<glyph unicode="L" horiz-adv-x="471" d="M28 30q18 63 27 89q9 24 23.5 122.5t20.5 123.5q6 24 8 37.5t22 36.5q20 21 24 87q2 26 2 47q0 31 -4 50q-3 11 -3 22q0 48 51 96q19 17 44 17q14 0 31 -5q46 -15 46 -18t7.5 -2t5.5 -23q-3 -26 -16 -41.5t-25 -62.5q-14 -47 -45.5 -187t-38.5 -173q-5 -22 -5 -44 q-1 -11 1 -23q4 -34 47 -25q12 2 22 2q27 0 45 -14q26 -20 49 12q22 32 55 32h2q34 -2 41 -29q1 -6 1 -13q0 -22 -14 -49q-20 -35 -50 -59q-17 -14 -31.5 -5t-17.5 -4q-17 -54 -28 -54q-12 0 -19 52q-3 21 -22 6.5t-26 -2.5q-4 5 -28 -19q-29 -24 -44 4q-17 29 -29 17 q-25 -23 -39 -17q-22 6 -45 -12t-43 -27q-2 -1 -4 -1q-7 0 -7 12q0 14 9 44z" />
<glyph unicode="M" horiz-adv-x="733" d="M28 52q18 49 29 84q7 20 17 105.5t50 144.5q39 57 39 129q0 15 -2 31q-2 12 -2 26q-1 36 11 82q16 64 22 106q3 27 36 27q18 0 46 -9q77 -24 85 -28q7 -4 19 -76q8 -48 8 -87q0 -19 -2 -36q-2 -16 -2 -32q0 -35 10 -75q14 -56 21 -27t37 141.5t36 139.5q6 26 30 48.5 t47 11.5q23 -12 42.5 1.5t40.5 9.5q12 -3 25 -101q2 -16 13 -31.5t13 -31.5q1 -12 -4.5 -38t-2.5 -46q2 -21 13 -32.5t11 -21.5q2 -35 -10 -47t-13 -27q-1 -10 -1 -22q0 -49 16 -139q20 -110 24 -148v-11q0 -28 -14 -32q-16 -4 -22 -26q-6 -19 -13 -19h-3l-8 4l-26 12 q-27 12 -40 -10q-5 -8 -12 -8q-10 0 -22 18q-15 23 -15 59q0 12 2 26q6 54 8.5 75.5t5.5 74.5q2 51 2 159v107l-14 -29q-14 -29 -25 -20q-12 9 -11.5 22t-8.5 -9q-9 -24 -10.5 -51t-3.5 -57q-3 -48 -21 -82q-11 -20 -18 -75t-19 -86q-12 -32 -27 -34.5t-26 -14.5 q-12 -13 -28.5 -8.5t-19.5 26.5t0.5 55t6.5 63q1 30 -6.5 60t-6.5 54t-4 50t-20 29q-17 3 -10 33t3 47q-2 10 -7 10q-11 0 -35 -71q-20 -55 -50.5 -196.5t-42.5 -166.5q-17 -41 -45 -23q-15 9 -43.5 -2.5t-49.5 -22.5q-11 -6 -11 6q0 10 8 32z" />
<glyph unicode="N" horiz-adv-x="598" d="M26 42q16 65 23 77q8 12 15.5 71t10.5 94q1 35 8 74.5t27 57.5q17 16 17 53v9q-2 44 -10 59q-3 5 -3 11q0 19 28 46q20 20 26 64t3 62q-2 8 -2 14q0 40 62 46q15 1 27 1q20 0 30 -3q16 -5 13 -5q-6 0 32 2h1q23 0 33 -50q3 -21 10.5 -33.5t13.5 -32.5q2 -6 1 -14 q0 -21 -11 -56q-16 -49 -17 -74v-5q0 -28 18 -103q14 -57 23 -57q4 0 7 11q9 35 19 101.5t21 93.5q8 20 8 50v21q-1 10 -1 19q0 36 10 74q12 47 13.5 47.5t23.5 5.5q21 3 78 5h7q50 0 51 -20q0 -21 -4.5 -26.5t4.5 -22.5q2 -4 2 -10q0 -20 -20 -60q-26 -52 -34 -76 q-9 -24 -4.5 -24t4.5 -35t-9 -53.5t-15 -43.5q-7 -26 -6 -40t-5 -44q-7 -31 -10 -39.5t-15 -64.5q-13 -57 -18.5 -117.5t-5.5 -72.5q0 -28 -21 -7q-3 2 -10 6t-31 -8q-18 -9 -22 4.5t-11 13.5q-16 -2 -33 -26q-10 -11 -22.5 25.5t-12.5 78.5q0 41 -4 43t-18 2q-13 -1 -7 53 q6 47 5 67v6q-1 18 -10 13t-10 13q-1 17 -9 99q-7 72 -7 98v5q3 47 -24 11q-18 -25 -20 -79.5t-8 -89.5q-12 -60 -40 -138q-11 -34 -12 -63.5t-8 -83.5q-9 -54 -19 -63t-26 -5q-16 6 -14 4.5t-8 -17.5q-8 -11 -12 -11q-2 0 -2 2q-4 7 -17 13q-21 8 -44 -6q-10 -7 -10 10 q0 14 7 43z" />
<glyph unicode="O" horiz-adv-x="472" d="M43 97q-16 38 -16 89q0 58 20 132q11 41 11 97q0 27 -3 59q-5 54 -5 90q0 26 3 42q5 37 33 62.5t55 55.5q27 29 36.5 32.5t58.5 11.5q47 7 84 11l38 4l27 5q7 1 13 1q21 0 43 -11q29 -15 43 -64t20 -78q2 -8 2 -17q0 -22 -12 -46q-16 -33 -25 -84q-9 -52 -9 -112t-9 -93 t-12.5 -60.5t-30.5 -67.5q-28 -41 -26.5 -48t-21.5 -40q-24 -33 -39.5 -26t-44.5 7q-40 0 -70 -49q-6 -9 -13 -9q-8 -1 -17 9q-18 18 -42 34q-26 14 -21 -9t-15 -29q-4 -1 -7 -1q-17 0 -24 28q-8 34 -24 74zM174 354q4 -45 4 -82v-8q0 -40 25 -40q24 0 62 -13q9 -3 17 -3 q23 0 29 30q7 39 24 76t32 88q14 50 20 78q3 12 3 25q0 19 -5 42q-11 54 -47.5 55.5t-61.5 21.5q-25 19 -40 19q-18 0 -18 -29q-2 -26 -12 -61l-9 -35l-13 -57q-10 -44 -11 -84q0 -12 1 -23z" />
<glyph unicode="P" horiz-adv-x="385" d="M10 39q0 27 3 55t6 50q3 21 13 45.5t13 43.5t-5.5 31t9.5 42t29 68.5t2 53.5q-3 4 -3 11q0 19 27 55q14 16 16 72q1 25 1 44l-2 40q0 25 31 77q13 23 50 26l38 3l22 2q10 1 22 1q14 0 30 -1q63 -7 84 -67q6 -22 7 -26.5t12 -35.5q7 -21 7 -51q0 -16 -2 -36 q-6 -54 -12 -78q-7 -25 -11.5 -30t-10.5 -23t-4.5 -17.5t-7.5 -12.5q-15 -22 -17 -44q-2 -17 -18.5 -16.5t-31.5 -1.5q-6 -1 -15.5 -14.5t-18.5 -16.5q-11 -4 -17.5 10t-15.5 11q-5 -3 -10.5 -14t-10.5 -14q-8 -6 -14.5 -4t-10.5 -1q-11 -7 -25 -107t-19 -112 q-6 -12 -20.5 -34t-25.5 -29q-4 -3 -7 -3q-5 0 -5 9q0 14 -18 12q-22 -4 -22 -12t-3 -8q-2 0 -4 2q-7 6 -22 5q-13 0 -13 40zM212 441q4 1 19 13q21 18 28 32q6 15 16 61t8 50q-3 3 -27 13q-9 4 -14 3q-8 0 -6 -9q0 -14 -14 -84q-12 -65 -12 -76q0 -3 2 -3z" />
<glyph unicode="Q" horiz-adv-x="498" d="M14 178q-1 14 -1 27q0 66 15 119q14 53 14 112v22q-1 23 -1 43q0 40 4 64q4 37 32 62.5t55 55.5q27 29 39 43t60 22q24 3 45 3t38 -3l36 -6l27 5q7 1 14 1q20 0 42 -11q28 -15 42.5 -64t20.5 -78q6 -30 -0.5 -63t-15.5 -84t-18.5 -111.5t-18.5 -93.5t-13 -60.5t-31 -67.5 q-1 -2 -2.5 -3.5t-1.5 -2.5q9 -13 17 -45.5t19 -48.5q11 -17 113 -68q45 -23 46 -29.5t-15 -6.5q-17 0 -3 -18t33 -27q9 -4 9 -8q0 -3 -10 -7q-19 -7 -35 2q-45 23 -19 -12q12 -16 -2.5 -17.5l-14.5 -1.5l-28 17.5t-30 26.5q-1 4 -31 39q-19 24 -47 14q-18 -6 -34.5 10.5 t-26.5 31.5t-7.5 1.5t-11.5 -10.5q-11 4 -22 43q-18 -25 -29 -25q-29 0 -41.5 23t-27.5 5t-26 -26.5t-36 6.5t-27.5 23t-24.5 1q-22 -6 -27 4t-21 51q-18 39 -21 121zM166 184q-1 -11 -1 -21q0 -56 21 -56q24 0 66 25t51 65q7 39 24 76t32 88q14 50 19 77q3 13 3 27 q0 19 -4 41q-2 6 0.5 31t-2.5 29q-9 6 -24.5 -8t-20.5 -6q-11 15 -13 31.5t-14 19.5h-2q-9 0 -17 -12q-9 -14 -16 -8q-25 18 -39 18q-18 0 -20 -28q-1 -26 -10.5 -61l-9.5 -35l-14 -57q-10 -41 -10 -80q0 -14 1 -27q2 -24 2 -54q0 -33 -2 -75z" />
<glyph unicode="R" d="M10 80q0 27 3 55t6 50q2 21 21 84.5t22 82.5t-5.5 31t9.5 42q27 46 27 76q0 15 -7 26q-3 5 -3 11q0 19 27 54q13 18 12 44.5t-3 49.5q-3 23 6.5 40.5t23.5 41.5q14 23 51 26l37 3l23 3q10 1 21 1q14 0 30 -2q65 -7 84 -67q6 -22 7 -26.5t12 -35.5q7 -21 7 -51 q0 -15 -2 -35q-6 -54 -12 -79q-7 -25 -11.5 -30t-9.5 -23q-6 -18 -5 -17.5t-8 -13.5q-15 -21 -16 -43q-2 -17 -18.5 -16.5t-32.5 -1.5q-18 -4 -15 -37q1 -18 25 -98q22 -71 22 -93q0 -24 -7 -24q-4 0 -14 -6q-12 -7 -7 -14.5t-1 -20.5q-9 -23 -27 -25q-13 -3 -29 -18 q-5 -6 -14 -6q-7 0 -17 4q-14 3 -7.5 24t5.5 39q-2 18 -9 52.5t-11 49.5q-10 39 -20 33q-11 -7 -18 -58.5t-13 -63.5t-22 -15.5t-26 -11.5q-12 -9 -11 -12.5t-17 -5.5q-22 -4 -22 -13q0 -20 -29 -20q-12 0 -12 60zM240 503q10 9 19 24q7 15 17 60q8 33 7 45q0 5 -1 6 q-6 4 -24 8q-4 1 -6 1q-12 0 -10 -11q1 -15 -9 -82q-7 -48 -7 -59q0 -4 1 -4z" />
<glyph unicode="S" horiz-adv-x="397" d="M13 184q0 16 20 38q23 24 55 35q31 12 34 -1.5t7 -25.5q3 -13 -4 -29t2 -33t32 0.5t32 32.5q13 25 -17 56q-5 4 -3 41q0 15 -15 34q-9 9 -19.5 12t-13.5 19q-3 15 -6 48.5t-11 48.5q-6 10 -6 36q0 15 2 36q2 23 26 93t33 90q8 18 42 22t57 20q17 12 38 12q6 1 13 -1 q29 -4 53 -5q24 -2 36 -29l13 -28l3 -4q4 -5 7 -13q2 -4 2 -8q0 -12 -13 -23q-19 -16 -20 -23q-3 -13 -12 -37.5t-21 -31.5q-13 -8 -20 2.5t-17 11.5q-11 1 -15 -4t-16 -5q-27 -4 -44 -17q-16 -13 -9.5 -39t12.5 -46q9 -33 57 -106q19 -32 26 -93t7 -82t-24 -71t-41 -70 q-17 -21 -18 -17t-25 -6q-25 -11 -22 -15.5t-12 -10.5t-41 -5t-41 1q-15 2 -24 7.5t-22 5.5q-15 0 -13 -12.5t-6 -20.5q-3 -2 -7 -2q-6 0 -10 6q-8 10 -5 28t5 22.5t-8 26.5q-11 22 -6 50.5t9 45.5q3 17 -5 14q-11 -4 -11 19z" />
<glyph unicode="T" horiz-adv-x="369" d="M13 47v7q0 26 20 57q7 11 -2 30.5t-10 31.5q-2 9 22 43q12 18 16 65q1 25 16 51q11 19 36.5 121.5t31.5 118.5q4 16 1 20l-2 4l-14 -4q-13 -3 -25 -5q-7 -2 -27 -18q-24 -18 -24 26q-1 12 6.5 45t7.5 54q0 25 26 63q14 21 28 16t38 -2q24 2 92 7l68 4l25 -2q25 -3 41 -8 q13 -6 13 -53v-7q-1 -21 -21 -36q-15 -11 -10.5 -19.5t1.5 -29.5q-4 -21 -9.5 -21t-15.5 -3q-12 -3 -29 -13q-12 -7 -22 -4.5t-16 -4.5t-8 -12.5t-9 -13.5q-7 -9 -15 -87.5t-11 -101.5q-5 -23 -13.5 -34.5t-17.5 -26.5q-9 -16 -6.5 -32.5t4.5 -34.5q1 -19 -7.5 -47t-7.5 -45 q0 -18 -8.5 -20t-17.5 -19t-5.5 -20.5t-6.5 -17.5q-11 -15 -15.5 -12.5t-12.5 -5.5q-9 -9 -12.5 -14.5t-13.5 -8.5q-11 -3 -22 -9.5t-29 -12.5q-3 -1 -6 -1q-19 0 -22 42z" />
<glyph unicode="U" horiz-adv-x="418" d="M-52 107q3 43 10 58q6 14 24.5 103t35.5 113q15 24 25 87q9 57 9 86v5q-1 7 -1 17q1 28 7 76q8 66 28 84q17 17 34 17l4 -1q19 -2 24 -3q5 -2 10.5 -1t23.5 -5q18 -7 7.5 -20t-17.5 -40q-9 -27 -13 -90.5t-4 -93.5q0 -82 -24 -103q-15 -12 -33 -112q-16 -89 -15 -123v-7 q3 -42 34 -42q15 0 37 10q29 12 51.5 56.5t34.5 71.5q10 27 24 97q9 48 10 75q0 12 -2 19q-1 5 -1 15q0 34 17 126q22 116 40 137q25 30 74 30h9q27 -2 28.5 -12t1.5 -52t-9.5 -115t-18.5 -97t-33 -156t-41 -180q-18 -48 -28.5 -53.5t-42.5 -32.5q-18 -15 -29 -30.5 t-22 -20.5q-9 -3 -19.5 1.5t-23.5 -1.5q-12 -4 -22 -22q-9 -17 -19 -16h-2q-6 3 -14.5 12t-14.5 9q-12 1 -22 -4t-19 -3q-21 6 -31 22t-28 1q-8 -7 -16 -7q-19 0 -33 47q-6 18 -6 46q0 10 1 22z" />
<glyph unicode="V" horiz-adv-x="371" d="M-9 743q6 15 47 13q19 1 40 -2l20 -4l16 -18q16 -17 18 -52q2 -36 -5 -62.5t5 -51.5t14.5 -114t7.5 -146q2 -54 18 -63q10 3 24 57q12 44 12 72q0 6 -1 11q-4 30 5.5 51.5t15.5 51.5t13.5 52.5t15.5 57.5t3.5 59t-5.5 52q-3 39 73 53q13 2 24 2q52 0 52 -52 q0 -36 -43 -130q-9 -21 -32.5 -104t-48.5 -177.5t-46 -175t-24 -95.5q-7 -21 -32 -29q-6 -1 -10.5 -8.5t-8.5 -7.5q-8 2 -9 10q-3 -3 -23 4.5t-25 18.5q-6 -14 -18 -11q-3 0 -10 20q-11 17 -11.5 52.5t-4.5 77.5q-6 50 -8 94.5t-6 89.5t-21 149.5t-27 137.5q-13 44 -13 75 q0 25 8 42z" />
<glyph unicode="W" horiz-adv-x="661" d="M-9 732q4 23 19 29q15 5 18.5 -1t22.5 1q17 7 19 9q1 1 5 0q6 0 18 -2q20 -4 33 -11l13 -7l29 -33q25 -27 25 -53q0 -5 -1 -10q-4 -16 -4 -37t4 -45q9 -66 8 -87q0 -33 -16 -103q-13 -54 -13 -93q0 -14 2 -25q3 -23 14 12t25.5 92.5t30 119t27.5 92.5q21 53 41 53 q3 0 5 -1q22 -8 52 -5q30 2 35 -39.5t17 -81.5q11 -41 12.5 -89t29.5 -35q27 12 35 68t15 99q6 43 15.5 107.5t26.5 87.5q17 26 43 26q11 0 23 -5q24 -11 30.5 -14t25.5 10q17 11 38 11q13 0 26 -4q11 -4 11 -20q-1 -18 -13 -50q-24 -62 -36 -98q-15 -39 -30.5 -66.5 t-31.5 -64.5q-16 -39 -19 -23.5t-15 -17.5q-14 -33 -42.5 -188t-34.5 -188q-11 -52 -35 -40t-29 -26q-3 -20 -19 -9t-25 23q-9 11 -14.5 -8t-20.5 -19t-13 17t-10 25q-12 7 -8 51.5t6 69.5v16q0 42 -14 42h-1q-18 -3 -15.5 33t5.5 54q2 17 3.5 47t-14.5 33q-18 3 -17 -17.5 t-14 -35.5t-20.5 -23t-13.5 -38q-9 -30 -21.5 -59.5t-15.5 -54.5q-9 -56 -31 -94q-12 -21 -22 -30t-14 -26q-8 -26 -15 -26q-6 0 -12 19q-8 24 -17.5 24t-22.5 -24q-8 -12 -14 -12q-8 0 -14 19q-2 7 -2 21q0 22 6 62q10 64 13 94q2 30 -1.5 60t-0.5 61q2 30 5 70t0 61 q-3 20 -9.5 34.5t-5.5 43.5q0 28 -13.5 39.5t-24.5 18.5q-22 12 -22 40q-1 20 -4.5 54.5t-9.5 51.5q-3 8 -3 19q0 9 2 19z" />
<glyph unicode="X" horiz-adv-x="398" d="M-47 -6q-6 4 -6 15q0 16 13 46q2 5 27.5 51t55.5 100t55 100t28 52q4 12 4 12.5t1 3.5q-7 45 -13 59q-6 12 -9 12.5t-3 10.5q-1 10 -5.5 32.5t-5.5 39.5q-11 110 -15.5 144.5t19.5 46.5q-6 -5 23 8q5 2 8 9t7 10q21 12 38 12q30 0 43 -40q6 -19 12.5 -62.5t9.5 -76.5 q-2 -3 10 17q64 99 73.5 129.5t18.5 37.5q2 2 6.5 9.5t11.5 9.5q-6 0 11 -11q5 9 13 11q5 0 10 -1t14 1q2 0 13.5 -2.5t17.5 -2.5q3 -1 5.5 -5.5t5.5 -5.5q9 -5 9 -15q0 -5 -2 -10q-14 -29 -77 -141q-62 -110 -66 -110t-13 -16q-10 -16 -13 -26q1 2 -19 -40 q9 -38 18.5 -75.5t10.5 -49.5q1 -21 0 -29t5 -31t21.5 -58t18.5 -53q2 -19 9 -62t10 -52q4 -15 4 -28q-2 -22 -10 -22q-2 0 -4 1q-14 7 -14 1q0 -3 -3 -3q-2 0 -7 2q-14 7 -14 1q0 -3 -3 -3q-2 0 -7 2q-2 1 -21 22q-9 9 -16 8t-20 8q-19 12 -26 27q-14 27 -22 34 q-9 7 -7 10.5t-5 17.5q-8 14 -12.5 17.5t-2.5 15.5q0 27 -9 105q-4 -6 -6 -10q-26 -50 -53 -122q-11 -28 -12 -47.5t-5 -26.5q-17 -19 -19 -21q-3 -2 -16 8l-8 -8q-4 -4 -7 -1q-12 -16 -16 -14q-3 1 -3 13q-4 -1 -5 1q-21 -23 -39 -14q-5 1 -3.5 13t-1.5 15q-2 0 -8.5 -3.5 t-7.5 -2.5z" />
<glyph unicode="Y" horiz-adv-x="365" d="M20 12q-5 -2 -5 3t5 17q7 17 28.5 74.5t21.5 66.5q-1 4 12 41q7 21 15 41.5t8 29.5q-2 7 3 36t8 39q6 22 8 31.5t8 24.5q1 35 1 39q-1 4 -8 24q-7 19 -10 19q-5 0 -29 84q-26 87 -33 117q-3 9 5.5 35.5t16.5 29.5q3 1 6.5 5.5t8.5 5.5q32 5 57 5q10 -2 17 -1t14 1 q7 -2 9.5 -9.5t5.5 -9.5q6 -7 -7 -13q-2 -1 -2 -6q0 -20 36 -99q2 -4 6 -16q12 33 30 76.5t30 62.5q20 30 34 30q3 0 6 -1h4q7 0 23 -1q27 -1 29 -1q9 -5 16 -12.5t20 -13.5q11 -6 11 -15q0 -11 -13 -25q-23 -28 -62 -139q-24 -66 -35.5 -93t-40.5 -69q-5 -24 -14 -54 q-9 -25 -15 -37t-10 -33q-5 -21 -2.5 -42t-3.5 -42q-7 -21 -21 -65.5t-15 -53.5q-2 -12 -10 -31q-16 -37 -30 -49q-10 -9 -10.5 0t-6.5 9q-6 -1 -8 -12t-15 -19q-1 0 -17 9t-18 10q-12 -6 -30.5 -11t-20.5 2q-1 8 -11 5z" />
<glyph unicode="Z" horiz-adv-x="409" d="M-6 45q11 30 25.5 85t41.5 127q27 71 73 111t70 103q22 62 38 110q5 15 5 27q0 24 -22 30q-33 8 -35.5 -3.5t-12.5 -10.5q-12 1 -10.5 9.5t-11.5 4.5t-18 -12t-17 -2q-26 10 -59 7h-1q-10 0 -10 15t9 44q21 70 36 72q2 0 10 3q6 2 13 2h4l20 -7q19 -7 46 2q19 6 33 6 q6 0 12 -1q18 -4 39 -7q20 -4 41.5 -3t33.5 -2q12 -4 51 -9t36 -28q-4 -24 4 -44q3 -8 3 -16q0 -12 -7 -24q-13 -21 -34 -44t-35 -53q-15 -31 -23.5 -47.5t-26.5 -48.5q-18 -33 -54 -128t-48 -120t-1.5 -35.5t25.5 -2.5q15 6 11.5 5.5t22.5 -0.5q55 0 73 5q6 2 24 25.5 t17 -15.5q-2 -39 -8.5 -82.5t-20.5 -57.5q-14 -15 -32 -33q-9 -9 -12.5 -9.5t-3.5 8.5q3 49 -17 27q-15 -18 -33 -11q-14 7 -27 0q-30 -16 -37 -12q-19 10 -50 2q-26 -8 -36 -8h-4q-11 1 -29.5 2.5t-29.5 -1.5q-10 -3 -16 -3q-14 0 -16 13q-3 15 -17 10q-7 -3 -7 5q0 7 5 20 z" />
<glyph unicode="a" horiz-adv-x="283" d="M-31 160q0 25 16 47q16 21 22.5 51.5t8.5 48.5q1 29 23 52q14 15 19 40t8 46t10 22.5t15 15.5q7 13 4 19t9 15q11 9 15.5 45t18.5 67q13 30 52 35t63 5q23 0 23 -29l1 -28v-3t-3 -18q-4 -15 -4 -36q0 -15 2 -33q3 -22 7 -38q2 -9 2 -22q0 -10 -1 -23q-3 -31 -6.5 -39.5 t2.5 -52.5q4 -44 4 -97t-4 -68q-6 -15 -12.5 -17t-18.5 -19q-13 -18 -7 -16t-15 -10t-22.5 -12t-14.5 4q-14 3 -16.5 10.5t-13.5 7.5t-16.5 16.5t0.5 29.5q10 22 2 39q-8 13 -28 -2.5t-28 -28.5q-9 -14 -14.5 -43t-24.5 -37q-20 -9 -23 -7.5t-18 -1.5q-16 -3 -14 -9t-6 -7 h-2q-14 0 -14 38zM131 337l8 -1q5 -1 10 -1h7q8 -1 12 3l4 4l-7 84z" />
<glyph unicode="b" horiz-adv-x="350" d="M-2 85q-4 2 -4 13.5t4 33.5q9 43 16 58q6 15 13.5 52.5t9.5 59.5q0 21 7 88t23 91q15 24 12.5 35.5t-0.5 25.5q1 12 -2.5 41t16.5 56q17 23 53 22h11l44 -4l38 -5q38 -4 66 -19q29 -15 37 -91q2 -21 2 -38q0 -42 -16 -53q-23 -16 -34.5 -8.5t-9.5 -7.5q1 -16 24 -26 t29 -32q3 -12 3 -34q0 -19 -2 -47q-4 -58 -34 -102q-49 -76 -128 -106q-23 -9 -37 -9q-11 0 -17 6q-12 13 -27 11q-15 -3 -19 -8t-15 -5t-12 6t-14 5q-15 -1 -21 -8q-4 -4 -8 -4q-3 0 -8 3zM114 244q-2 -14 -2 -24q0 -29 18 -32q6 -2 13 -2q19 0 45 12q36 16 48 42 q7 16 7 38q0 14 -3 29l-7 40l-3 11q-4 12 -11 6q-18 -16 -21 -12q-17 16 -33 16q-21 -2 -34 -45q-9 -27 -17 -79zM166 521q4 -21 3 -21l9 -5q2 -1 5 -1q7 0 15 8q10 10 14 31l5 21l-22 2q-5 1 -10 1q-14 0 -17 -6q-4 -6 -4 -16q1 -6 2 -14z" />
<glyph unicode="c" horiz-adv-x="261" d="M14 183q3 21 4 48q0 12 -1 26v9q0 42 16 108q18 74 28 90q9 13 41.5 87t42.5 99t21.5 22t38.5 0q26 3 40 15t38 16h4q20 -1 22 -27l2 -29l1 -6q0 -6 -2 -22q-4 -22 -11.5 -32t-19.5 -30q-25 -40 -28 -42q-8 -5 -24 29q-5 11 -16 -19q-6 -12 -5.5 -21.5t-9.5 -18.5 q-22 -22 -29 -50q-3 -12 -9 -42.5t-13 -46.5q-7 -17 -12 -70.5t5 -60.5q10 -9 33 23q9 13 34 5q6 -3 7 -24q0 -15 -4 -40q-8 -59 -11 -75q-3 -17 -16.5 -24.5t-19.5 -16.5q-7 -10 -7 -16t-7 -13q-5 -5 -9 -5q-6 0 -12 11q-4 6 -51 25q-32 13 -40 56q-5 18 -8.5 17t-10.5 7 q-3 5 -3 16q-1 9 1 22z" />
<glyph unicode="d" horiz-adv-x="342" d="M-35 67q-4 1 -4 9q0 14 10 44q16 50 25 71q7 21 34 114t36 127q5 20 5 48q-1 19 -3 43q-2 26 -2 43q0 23 4 33q6 17 32.5 34t23.5 14t23 7t65 13h5q61 0 104 -87q19 -38 19 -136q0 -3 -1 -7q0 -93 -13 -140q-15 -50 -55 -89t-50 -68q-18 -48 -40 -48q-4 0 -9 2 q-18 5 -33 -22q-14 -22 -36 2q-12 12 -14 7.5t-20 -14.5q-17 -10 -27 -10q-4 0 -7 1q-9 2 -17 8t-20 6t-19 -4t-16 -1zM84 227q1 -1 4 0q10 1 45 9q44 12 58 30q10 12 30.5 47.5t29.5 85.5q5 30 5 58q0 21 -2 41q-5 37 -19 37q-4 0 -9 -3l-6 2h-2q-5 0 -13 -7 q-18 -14 -27 -7q-15 9 -24 -22q-3 -9 -13 -76t-16 -80q-7 -14 -27 -63q-15 -38 -15 -48q0 -3 1 -4z" />
<glyph unicode="e" horiz-adv-x="332" d="M16 117q6 33 16.5 104.5t27.5 104.5q10 23 10 86q0 27 -2 63q-4 66 -3 102q0 28 2 38q5 26 39 26q14 0 32 -4q46 -12 85 -14q24 -2 30.5 3t27.5 23q10 9 18 9q9 0 15 -10l12 -20l6 -6q5 -6 11 -24q4 -16 4 -26q0 -23 -22 -15q-15 6 -26 -14q-7 -12 -34 1q3 -2 -27 -18 q-13 -7 -21.5 6t-28.5 16h-1q-17 0 -17 -42v-16q4 -60 12 -72q20 -39 49 -24q16 7 22.5 15t15.5 11t12.5 -34t2.5 -55q-2 -18 -21 -10.5t-31 2.5q-17 -8 -37 7q-16 10 -29 -5q-12 -14 -14 -75q0 -6 -1 -12q0 -50 17 -54q18 -5 32 -6.5t29 24.5q13 22 37 22q16 0 36 -9 q23 -11 6 -50t-24 -59q-10 -26 -45 -19q-37 8 -38 -5q0 -6 -15 -6h-8q-23 2 -29 16q-9 18 -25 -10q-7 -12 -14 -12q-8 0 -15 22q-6 20 -18.5 8.5t-21.5 -15.5q-9 -5 -27 -3q-14 2 -14 20q0 7 2 15z" />
<glyph unicode="f" horiz-adv-x="327" d="M18 136q6 19 6 50q0 14 -1 30q-1 13 -1 26q0 40 9 78q3 16 8.5 21.5t5.5 31.5q0 22 -0.5 42.5t8.5 45.5q7 24 3.5 61t-10.5 58q-8 24 5.5 54.5t40.5 32.5q25 1 36 -1.5t35 -7.5q23 -5 44.5 1.5t48.5 12.5q9 2 19 2q22 0 45 -11q33 -12 39 -37q7 -10 7 -20q0 -11 -8 -21 l-15 -20l-10 3.5t-23 -3.5q-22 -13 -32 -5q-20 6 -24 2q-16 -16 -20 -15q-3 0 -7.5 2.5t-9.5 3.5q-30 3 -18 -2q-4 1 -9 9l-0.5 0.5l-0.5 0.5q-16 0 -19 -42q-2 -23 -2 -41q0 -16 1 -28q30 11 29 11q29 9 48 -24.5t18 -54.5q-4 -25 -19 -23q-4 0 -8 6h-6q-6 0 -20 -5.5 t-20 -3.5q-2 1 -8 7q-6 -4 -19 10q-8 0 -9 -12q-2 -22 -6 -63q-2 -20 -2 -38t2 -33q2 -17 2 -39q0 -20 -1 -44q-4 -52 -12 -67q-4 -8 -5.5 -6.5t-6.5 -4.5q-11 -17 -20 -3q-4 -4 -8 -1q-2 -2 -3 -4l-1 -2q-5 -6 -9 -6t-8 8q-12 -6 -14 8q-1 0 -26 20q-7 4 -11 14 q-11 9 -11 22q0 6 3 14z" />
<glyph unicode="g" horiz-adv-x="353" d="M15 123q-3 3 -3 12.5t3 24.5q5 30 5 74q0 43 18 118t27 89t39.5 87.5t40.5 99.5q9 25 18.5 21.5t33.5 0.5q24 3 36.5 14.5t33.5 15.5q5 1 11 1q17 0 38 -7l29 -10l0.5 -3t-2.5 -24q-4 -23 -1 -43.5t-9 -36.5q-5 -7 -23 -10q-7 -2 -16 7t-18 8q-7 -2 -13 -13.5t-13 -13.5 q-10 -3 -16.5 9.5t-15.5 8.5q-9 -6 -12.5 -22t-8.5 -28t-5 -22t-9 -19q-20 -20 -27 -50q-3 -12 -9.5 -42.5t-12.5 -46.5q-7 -17 -13.5 -70t2.5 -60q4 -5 42 4q4 1 11 -2t15 3q5 3 10 13.5t11 15.5q3 2 5 7t5 8q4 3 8.5 3t8.5 3q12 8 25 37t-9 35q-15 3 -14.5 -7.5 t-8.5 -12.5q-11 -3 -10.5 1.5t-5.5 4.5q-7 0 -6.5 -5t-5.5 -6q-22 -6 -22 0q-9 38 2 57q9 16 15.5 38t23.5 26q15 3 22.5 -11.5t28.5 -12.5q20 1 48 -2q30 -2 30 -47q0 -36 -36 -121q-38 -87 -63 -113q-18 -18 -64 -39t-52 -29q-6 -9 -6.5 -15.5t-6.5 -13.5q-5 -5 -8 -5 q-6 0 -10 10q-3 5 -43 26q-27 13 -33 56q-3 18 -6 16.5t-9 7.5z" />
<glyph unicode="h" horiz-adv-x="382" d="M3 38q-2 -1 -4 -1q-5 0 -5 7q0 12 16 47q11 24 14.5 66.5t9.5 73.5q5 30 9 77.5t11 87.5q6 39 17 93t13 90q1 36 -5.5 52t5.5 34q5 8 39 22q9 3 19.5 17.5t19.5 14.5t45 -23q8 -6 16 -10t16 -10q15 -4 -1.5 -28t-26.5 -64q-11 -40 -19 -84q-6 -30 -5 -53q0 -11 1 -21 q2 -19 35 -22q25 1 43 15q36 26 37 113t11 128q7 33 32 28q8 2 54 -17q15 -7 15 -17q0 -8 -7 -16q-17 -20 -17 -61q0 -42 -9 -92.5t-23 -116.5q-14 -67 -18.5 -123t-6.5 -95q-2 -41 -2.5 -47t-8.5 -17q-4 -6 -16 -3.5t-22 -6.5q-23 -22 -45 -25t-19 15q2 15 2 71q0 21 6 43 t12 43q5 21 8 54t1 43q0 2 -2 6q-4 -4 -5 -9q-6 -18 -35 -3q-6 -8 -6 -19q0 -15 -20 -13.5t-14 23.5q7 24 -13 33h-1v0q-9 -6 -9.5 -53t-8.5 -77q-9 -31 -10 -73.5t-6 -66.5q-6 -31 -20.5 -18.5t-22.5 -1.5q-7 -11 -17 -11q-12 0 -27 15l-18 -14q-2 -1 -4 -1l-1 1q-1 2 -7 0 z" />
<glyph unicode="i" horiz-adv-x="189" d="M-11 65v7q0 8 1 16q3 9 5 44t4 51q0 15 15 43.5t19 47.5q4 18 1.5 24.5t-2.5 24.5q-1 17 17 87.5t21 78.5q15 31 2 43q-5 2 -5 42q1 10 1 22q2 61 10 84q6 17 9 17q1 1 1 -1q3 -6 49 -17q45 -12 48.5 -32t3.5 -123q0 -14 -2.5 -32.5t-2.5 -26.5q0 -9 -3.5 -9t-8.5 -10 q-6 -11 -8 -50.5t-2 -54.5t-3.5 -13.5t-8.5 -10.5q-6 -11 -6 -69q0 -8 -1 -16q0 -43 3 -52q0 -3 -15 -27q-7 -12 -5 -14.5t-7 -8.5t-21 -28q-9 -14 -28 -23q-15 -8 -23.5 -7t-17.5 -6t-10.5 -11t-11.5 -7q-3 -1 -5 -1q-10 0 -13 18z" />
<glyph unicode="j" d="M10 260q0 20 41 41t51 9q9 -12 -1 -30t-5 -41q13 -57 72 -57h8q32 2 41.5 27.5t23.5 52.5q25 51 25 106v8q-1 30 -4 43.5t5 55.5q8 39 8 75q0 27 -2 71q-1 14 31 44q9 8 12.5 18t24.5 13h2q13 0 25 -14q14 -16 21 -16q9 0 9 -18q0 -22 -13 -70q-11 -38 -13.5 -128 t-3.5 -123q-2 -33 -24.5 -87t-33.5 -75q-12 -21 -21 -31t-15 -24q-13 -26 -25 -26q-27 0 -49 -22q-14 -14 -21 2q-5 7 -11 -1.5t-6 -20.5q-1 -8 -5 -8q-3 0 -7 3q-12 8 -12 17q-5 30 -35 10q-7 -5 -12 34q-1 10 -13.5 8l-12.5 -2l-8.5 4t-8.5 17q-1 12 -19 63.5t-19 71.5z " />
<glyph unicode="k" horiz-adv-x="323" d="M14 176q-2 6 -1 12q0 11 6 19q9 12 13.5 35t5.5 38q0 13 13 83t22 100q9 28 9 76v5q0 7 -1 14q0 40 3 57q6 52 24 93q6 12 19 11t29 8q6 3 11 3q15 0 31 -20q8 -13 5.5 -19t-4.5 -29q-3 -24 -2.5 -25t3.5 -16q2 -23 -3 -34q-6 -12 -12 -39l-6 -27l1 -1q2 -1 9 2 q6 2 9.5 21t9.5 34q17 46 21 48q7 1 21.5 36.5t26.5 51.5q11 14 23 14.5t26 -14.5q6 -9 15.5 -18t14.5 -27q1 -4 1 -8q1 -18 -13 -54q-16 -44 -37 -72q-21 -27 -45.5 -83t-29.5 -71q-9 -24 6 -60q9 -25 27 -63.5t23 -65.5q2 -20 2 -35q0 -19 -3 -31q-5 -15 -12.5 -20 t-9.5 -17q-3 -14 -3 -16.5t-12 -17.5q-13 -15 -15.5 -13.5t-23.5 -5.5q-13 -5 -17 -5q-2 0 -2 2q2 4 -2 13q-5 9 -8 20.5t-6 20.5q-6 16 -6 65q0 33 -14 58q-7 12 -8 -5t-4 -29q-8 -30 -17 -43q-10 -15 -20 -19t-14 -15t-1 -15.5t-5 -10.5q-8 -8 -14.5 -7t-15.5 -9 q-15 -18 -30 -16q-16 3 -2 45q4 12 -2 20.5t-5 29.5q0 21 -4 41z" />
<glyph unicode="l" horiz-adv-x="375" d="M6 82q16 52 21 73q7 20 18.5 100.5t17.5 101.5q5 21 6.5 32t18.5 29q14 18 18 72q1 22 2 39q0 25 -3 40q-2 9 -2 17q0 39 42 79q16 15 37 15q12 0 24 -4q38 -12 38 -15t6 -2t5 -19q-2 -21 -13 -33.5t-21 -51.5q-11 -39 -37 -154t-32 -142t-3 -54.5t39 -20.5 q35 6 55.5 -10.5t39.5 10.5q18 27 46.5 26t34.5 -23q2 -7 2 -15q0 -43 -54 -85q-14 -11 -26 -3.5t-15 -3.5q-21 -37 -38 -2q-3 18 -18.5 6t-21.5 -3q-3 4 -22 -15q-24 -20 -37 3q-13 24 -24 14q-20 -18 -32 -14q-18 4 -36.5 -11.5t-34.5 -21.5q-2 -1 -4 -1q-5 0 -5 10 q1 12 8 37z" />
<glyph unicode="m" horiz-adv-x="562" d="M-18 100q14 40 25 69q6 17 14 87t41 118q32 46 32 104q0 13 -2 27q-1 10 -1 21q0 30 9 68q13 52 18 87q2 22 28 22q14 1 38 -7q64 -20 70 -23q6 -5 16 -63q7 -37 7 -67q0 -17 -2 -33q-2 -14 -2 -28q0 -29 8 -60q12 -46 18 -22t30.5 116t29.5 114q4 21 24 40t39 10 q18 -9 34.5 1.5t33.5 7.5q10 -3 21 -83q1 -13 10 -26t11 -26q0 -9 -4.5 -31t-1.5 -38q2 -17 11 -26.5t9 -17.5q2 -29 -8 -39t-11 -22q-1 -8 -1 -18q0 -40 14 -114q16 -90 19 -122q1 -6 0 -10q-1 -20 -11 -24q-14 -4 -19 -22q-5 -17 -11 -17l-2 1q-6 4 -6 3l-22 10t-32 -8 q-5 -7 -10 -7q-8 0 -18 14q-13 19 -13 49q0 10 2 22q6 45 7.5 62.5t3.5 60.5q2 42 2 130v89l-12 -24q-11 -24 -20 -17t-9 18t-7 -7q-8 -19 -9 -41.5t-2 -47.5q-3 -40 -18 -67q-9 -16 -15 -61.5t-15 -70.5q-10 -26 -22.5 -28t-21.5 -12q-14 -15 -23 -15q-13 0 -16 30 q-3 18 0 44.5t5 52.5q1 24 -5 48t-5 45v9q0 50 -20 56q-13 3 -7.5 27t2.5 38q-2 7 -5 7q-10 0 -30 -57q-16 -45 -41.5 -161t-34.5 -136q-15 -34 -38 -19q-12 7 -35 -2.5t-41 -18.5q-9 -5 -9 5q0 7 6 26z" />
<glyph unicode="n" horiz-adv-x="446" d="M-28 90q12 54 19 65q6 9 12 58t8 78q2 28 7.5 60.5t22.5 47.5q15 14 13.5 50t-8.5 49q-9 17 21 47q16 16 21.5 52t2.5 51q-1 7 -1 12q0 33 49 38q11 1 20 1q18 0 27 -3q13 -4 12 -4q-3 -1 25 1q20 2 28 -40q3 -18 9 -28t11 -27q4 -17 -9 -57t-12 -61q-2 -21 14.5 -88.5 t24.5 -37.5q7 29 15.5 83.5t17.5 76.5q9 20 6 58q-1 9 -1 18q0 29 8 59q9 38 10.5 38.5t19.5 3.5q17 3 64 4t49 -15q0 -18 -4 -22t4 -19q1 -3 0 -8q0 -15 -16 -49q-21 -42 -27 -62q-8 -20 -4.5 -20.5t3.5 -28.5q0 -29 -7.5 -43.5t-12.5 -35.5q-5 -22 -4.5 -33.5t-4.5 -35.5 q-6 -26 -8 -33t-12 -52q-11 -47 -15 -97t-4 -59q-2 -23 -18 -6q-11 10 -34 -2q-14 -8 -17 3.5t-9 11.5q-8 -1 -28 -21q-9 -10 -18.5 20.5t-9.5 64.5q0 33 -3.5 35t-14.5 1q-12 -1 -6.5 44t4.5 60t-8.5 11t-7.5 11q-2 15 -8 81q-5 51 -5 73v11q1 39 -20 9q-15 -21 -17 -65 t-7 -73q-9 -47 -32 -114q-9 -27 -10 -51.5t-7 -68.5q-6 -45 -15 -53t-21 -3q-10 3 -19 -11q-6 -11 -10 -11q-1 0 -1 2q-2 6 -14 12q-18 7 -35 -5q-8 -7 -8 7q-1 10 5 35z" />
<glyph unicode="o" horiz-adv-x="370" d="M21 138q-12 32 -12 74q0 47 15 106q10 35 10 82q0 22 -2 47q-4 48 -5 78q0 18 2 30q4 30 27 51.5t45 45.5t30.5 27t47.5 9t70 9l31 3l22 4q6 1 11 1q17 0 35 -9q24 -12 35 -52.5t17 -64.5q1 -6 1 -13q1 -18 -9 -38q-14 -27 -21 -69q-8 -42 -8 -92t-6 -77 q-8 -27 -11.5 -49t-25.5 -55q-23 -33 -21.5 -39.5t-17.5 -33.5t-32 -21.5t-37 5.5q-33 0 -57 -40q-5 -7 -11 -7t-14 8q-14 16 -35 27q-21 12 -16 -7t-13 -25q-3 -1 -6 -1q-13 0 -19 24q-7 28 -20 62zM129 348q3 -36 3 -65v-9q0 -32 20 -33t52 -11q8 -3 13 -2q19 0 24 25 q6 33 20 63t26 72q13 41 17 63q2 9 1 21q0 15 -3 34q-9 45 -39 46.5t-50 17.5q-21 14 -33 14q-15 0 -16 -22q-1 -21 -8 -50l-8 -29l-12 -47q-9 -35 -8 -66q0 -11 1 -22z" />
<glyph unicode="p" horiz-adv-x="332" d="M-9 90q0 30 7 86q2 18 10.5 37.5t11.5 35.5q2 15 -5 25t8 35q14 24 23 56t2 44q-9 14 19 54q11 14 13 59q1 23 1 39l-1 30q0 20 26 64q11 18 41 20.5l30 2.5l19 2q9 1 19.5 1t22.5 -1q51 -5 69 -55q5 -18 6 -22t10 -29q6 -17 6 -43q0 -13 -1 -28q-5 -45 -11 -65 q-6 -21 -10 -24.5t-8 -18.5q-6 -19 -10 -25q-12 -17 -13 -36q-1 -9 -42 -15q-5 -1 -12.5 -12t-15.5 -13q-9 -3 -14 8.5t-13 8.5q-4 -2 -8.5 -11t-8.5 -12q-6 -5 -11.5 -3.5t-8.5 -0.5q-9 -6 -20.5 -88t-15.5 -92q-17 -36 -38 -52q-3 -3 -6 -3t-4 8q-1 12 -15 10 q-18 -3 -18 -10q0 -1 -24 -1q-10 0 -10 34zM156 419q4 0 16 11q17 14 23 26q5 12 13 50q6 30 6 38v3q-3 3 -22 11q-8 3 -12 3q-6 0 -5 -7q0 -12 -11 -70q-9 -52 -9 -62q0 -3 1 -3z" />
<glyph unicode="q" horiz-adv-x="405" d="M13 204q-1 12 -1 24q0 53 12 95q10 44 10 93v16q-1 20 -1 36q0 33 3 54q4 30 27 51t45 45t32 35.5t49 17.5q20 3 38 3q16 0 31 -2l29 -6l22 4t46 -8t35 -52t17 -64q5 -24 -0.5 -51.5t-12.5 -69.5q-8 -42 -16 -91.5t-14 -76.5q-8 -27 -11.5 -49.5t-25.5 -55.5q-1 -1 -3 -5 q8 -11 14 -37.5t15 -39.5q10 -16 93 -57q58 -28 25 -28q-14 0 -2 -15t27 -22q7 -3 7 -6t-7 -6q-16 -5 -29 1q-38 19 -16 -9q10 -14 -2 -15l-12 -1l-23 14t-24 22q-1 3 -25 32q-17 19 -39 11q-3 -1 -6 -1q-21 0 -44 35q-9 12 -6.5 0.5t-9.5 -7.5q-11 2 -18 34 q-14 -20 -24 -20q-24 0 -34 19t-22 4q-27 -31 -51 -16q-21 12 -23 19t-20 1q-2 -1 -4 -1q-16 0 -36 46q-12 33 -15 100zM135 208q-1 -10 -1 -18q0 -45 18 -45q21 0 55 21t41 54q6 32 20 62t26 72q12 41 16 63q2 9 2 21q0 15 -3 34q-1 5 0.5 26t-1.5 24q-8 6 -20.5 -6 t-16.5 -5q-9 12 -11 25t-12 16h-3q-7 0 -13 -10q-7 -12 -13 -6q-21 16 -33 16q-14 0 -15 -24q-1 -21 -8.5 -50l-7.5 -29l-11 -47q-9 -34 -9 -66q0 -11 1 -22q1 -18 1 -40q0 -29 -2 -66z" />
<glyph unicode="r" horiz-adv-x="333" d="M-8 123q0 31 7 87q2 17 17.5 69t18.5 68q2 15 -5 25t8 34q22 38 22 62q0 13 -6 22q-10 14 20 54q10 14 10 36l-3 45q0 21 25 63q11 19 42 22l30 2l18 2q11 1 25 1q9 0 18 -1q52 -7 69 -56q5 -18 6 -21.5t10 -28.5q6 -18 6 -44q0 -14 -2 -28q-4 -44 -10 -64 q-6 -21 -10 -25t-8 -18q-6 -20 -10 -26q-12 -15 -14 -35q-1 -8 -41 -15q-15 -3 -12 -30q1 -15 21 -81q18 -58 17 -76q0 -15 -17 -25q-9 -6 -5.5 -11.5t-1.5 -16.5q-7 -19 -22 -21q-12 -3 -24 -15q-4 -4 -11 -4q-6 0 -14 3q-12 3 -6.5 20t5.5 32q-5 43 -17 83q-8 32 -16 27 q-9 -6 -15.5 -48t-10.5 -52q-5 -10 -18 -13t-22 -9q-9 -7 -8.5 -10t-13.5 -5q-18 -3 -18 -11q0 -16 -24 -16q-10 0 -10 49zM196 490q6 12 14 49q6 27 6 37q0 3 -1 5q-4 4 -19 7q-3 1 -5 1q-9 0 -9 -10q0 -1 1 -3q0 -16 -8 -64q-6 -40 -6 -48q0 -3 1 -3q12 0 26 29z" />
<glyph unicode="s" horiz-adv-x="299" d="M4 205q-1 3 -1 7q0 33 62 57q26 9 28.5 -1.5t5.5 -20.5q2 -11 -3.5 -24.5t2.5 -26.5q6 -15 25.5 -0.5t26.5 26.5q10 19 -14 47q-4 3 -2 33q0 12 -13 28q-7 8 -15.5 10t-11.5 16q-3 12 -5 39.5t-9 39.5t-3 60q1 18 21 75.5t28 73.5q6 15 34 18t46 17q14 9 31 9h11 q24 -4 44 -5t30 -23l11 -23l3 -4l5 -10q1 -4 1 -7q0 -11 -10 -18q-16 -13 -17 -19q-2 -11 -10 -31t-17 -26q-11 -6 -16.5 2.5t-14.5 9.5q-9 0 -12 -4t-13 -4q-21 -2 -36 -14q-13 -11 -8 -32.5t10 -37.5q8 -27 47 -86q16 -27 21.5 -77t5.5 -67q0 -18 -19.5 -59t-33.5 -57 q-14 -17 -15 -13.5t-21 -5.5t-17.5 -12t-9.5 -9q-13 -7 -34.5 -6t-33.5 2q-12 0 -19.5 6t-18.5 6q-12 0 -11 -11t-4 -17q-3 -2 -6 -2l-8 4q-7 8 -4 24q2 15 4 19t-7 22t-4.5 41t7.5 38q2 13 -4.5 10.5t-8.5 12.5z" />
<glyph unicode="t" horiz-adv-x="311" d="M12 60q-1 4 -1 9q0 7 2 14q3 8 6 43t4 51q0 15 15.5 42.5t19.5 46.5q4 18 1.5 24.5t-2.5 24.5q-1 17 17 86.5t21 76.5q13 33 1 43q-11 9 -38 -6q-14 -7 -28 -3q-12 2 -9.5 23t2.5 33q0 28 8 55q8 34 49 38q32 3 56 3q14 0 26 -1q14 -3 56 1l41 3l15 -5q16 -4 27 -19 q7 -11 7 -25q0 -6 -2 -14q-4 -23 -10 -33q-7 -10 -5.5 -21t-1.5 -25q-3 -15 -12 -9t-20 7q-20 1 -43 -19q-10 -9 -7.5 -30t2.5 -29q0 3 -13 -18q-6 -11 -7.5 -50t-1.5 -54q0 -16 -3.5 -14t-8.5 -9q-6 -12 -7 -70v-26q0 -34 2 -41q1 -5 -14 -26q-8 -12 -6 -15t-6 -7 q-9 -6 -22 -27q-8 -13 -27 -21q-16 -6 -24 -4.5t-17 -4.5q-9 -7 -10.5 -11t-11.5 -6q-3 -1 -5 -1q-12 0 -15 20z" />
<glyph unicode="u" horiz-adv-x="339" d="M-35 146q2 36 8 47q5 12 20 84.5t29 92.5q12 20 20 72q8 46 8 69v5v11q0 23 5 65q7 54 23 70q13 13 27 13h4q16 -2 20 -2q3 -2 8 -1.5t20 -4.5q14 -6 5.5 -16.5t-14.5 -32.5q-6 -23 -10 -75t-4 -76q0 -68 -19 -84q-13 -11 -27 -93q-13 -72 -12 -99v-7q1 -34 28 -34 q12 0 30 7q24 11 42.5 47t27.5 59q8 22 20 79q8 40 9 61q0 9 -2 16q-1 5 -1 14q0 29 14 101q18 96 33 114q20 25 65 25h3q25 -2 25 -53q0 -35 -8 -95t-15 -79q-9 -21 -28 -129t-34 -147q-15 -40 -23.5 -44t-34.5 -26q-15 -13 -23.5 -26t-17.5 -16q-7 -3 -16 0.5t-20 -0.5 q-9 -4 -18 -20q-8 -13 -14 -12h-3q-6 1 -13 8.5t-11 7.5q-9 1 -18 -3t-16 -2q-17 3 -25 17.5t-22 1.5q-7 -6 -13 -6q-16 0 -28 39q-5 16 -5 40q0 8 1 17z" />
<glyph unicode="v" horiz-adv-x="322" d="M24 668q5 13 38 9q15 1 32 -1l17 -3l13 -15q13 -14 16 -42q1 -30 -5 -51.5t5 -42.5q9 -21 11.5 -93.5t6.5 -119.5q2 -44 14 -52q8 2 20 46q10 35 10 58q0 6 -1 11q-4 24 4 42t13 42t11.5 43t12.5 48q6 28 2.5 47.5t-4.5 43.5q-3 34 60 44q11 2 19 1q44 0 44 -43 q0 -26 -35 -107q-8 -17 -27 -85t-40 -145.5t-38 -143.5t-20 -78q-5 -17 -26 -25q-4 -2 -8 -8q-3 -5 -7 -5h-1q-6 1 -7 8q-3 -3 -19.5 3.5t-19.5 15.5q-7 -11 -15 -8l-8 16q-9 14 -9.5 43t-4.5 64q-5 41 -6.5 77.5t-4.5 73.5q-3 36 -17 122.5t-22 113.5q-10 33 -10 59 q0 21 6 37z" />
<glyph unicode="w" horiz-adv-x="553" d="M12 627q-4 14 -4 25q0 23 20 30q12 4 14.5 -1t17.5 1q14 5 16 7q1 1 4 1q5 0 15 -2q16 -4 27 -10l10 -5l24 -27q25 -28 20 -52q-3 -13 -3 -31q1 -15 3 -35q8 -57 7 -73q1 -27 -13 -83q-10 -43 -11 -74q0 -13 2 -24q1 -9 3 -9q8 0 29 95q27 123 47 173q19 49 37.5 42.5 t43.5 -3.5q24 2 28.5 -32t13.5 -67q9 -34 10 -73.5t25 -28.5q22 10 28.5 56t12.5 82q4 34 12.5 87.5t21.5 71.5q21 30 54 17q31 -14 47 -3q14 9 31 9q10 0 21 -3q9 -3 9 -16q0 -14 -10 -41q-19 -51 -30 -81q-12 -31 -25 -54t-26 -54q-14 -31 -16 -18.5t-12 -14.5 q-12 -27 -35 -154.5t-29 -153.5q-9 -44 -27 -34q-21 11 -25 -22q-2 -11 -8 -11q-3 0 -8 3q-13 9 -20 19t-12 -6t-17 -16t-10.5 15t-7.5 21q-10 6 -7 42.5t5 57.5q1 48 -12 46q-15 -2 -13.5 27.5t4.5 44.5q2 14 3 38.5t-12 27.5q-14 2 -13.5 -15t-11.5 -29q-20 -19 -28 -49 q-8 -26 -17.5 -50t-12.5 -44q-6 -42 -25 -78q-10 -17 -19 -24.5t-12 -21.5q-6 -23 -12 -23l-10 17q-10 41 -32 0q-7 -12 -12 -12q-7 0 -11 18q-2 6 -2 17q-1 20 5 52q8 52 11 77q1 24 -2 49t0 50q1 24 3.5 57.5t0.5 50.5q-3 16 -8 28t-4 36q0 29 -32 47q-15 10 -17 33 q0 17 -3 45t-9 42z" />
<glyph unicode="x" horiz-adv-x="331" d="M-21 52q-6 4 -6 14q0 13 11 37q3 8 67 123.5t68 124.5q4 10 4 14q-6 40 -10 47q-5 11 -7.5 11t-2.5 9q-1 8 -5 26.5t-4 32.5q-9 90 -13 118.5t16 38.5q3 1 9 2.5t10 3.5t6.5 7.5t5.5 7.5q18 11 32 11q24 0 35 -33q5 -15 10 -51t8 -63q6 10 9 13q52 82 60 107t15 31l15 15 q-5 0 9 -9q3 7 10 9q4 0 8.5 -0.5t11.5 0.5q1 0 25 -4q-8 1 9 -9q8 -4 8 -12q0 -4 -2 -8q-12 -24 -63.5 -116t-53.5 -90q-3 1 -11 -13t-11 -22q-1 -1 -15 -32q8 -32 15.5 -63t8.5 -40q0 -18 -0.5 -24.5t4.5 -24.5q4 -19 17 -47.5t16 -43.5q1 -16 6.5 -51t8.5 -44 q4 -12 4 -23q-2 -18 -8 -18q-2 0 -4 1q-11 4 -11 0q0 -2 -2 -2t-7 2q-11 4 -11 0q0 -2 -2 -2t-7 2q0 -1 -16 18q-8 7 -13.5 6t-16.5 7q-15 9 -21 23q-13 23 -18 28q-7 6 -6 8.5t-5 14.5q-13 23 -12 27q0 24 -7 86q1 1 -5 -8q-20 -40 -44 -100q-9 -23 -10 -39t-4 -22 q-8 -11 -15 -18q-2 -2 -13 7l-4.5 -4.5l-2.5 -2.5q-3 -3 -6 -1q-8 -12 -12 -12q-3 1 -3 12q-3 -2 -4 0q-17 -17 -32 -12q-4 1 -3 11t-1 13q-2 0 -6 -3.5t-6 -1.5z" />
<glyph unicode="y" horiz-adv-x="295" d="M18 84q7 13 24.5 60.5t17.5 54.5q-1 6 10 34q6 18 12.5 35t5.5 23t3 29.5t7 32.5q5 18 6.5 26t6.5 20v32q-1 3 -6 19t-8 16q-5 0 -25 70q-20 71 -25 95q-2 8 4 29t13 24q18 9 12 9q35 6 47 4q9 -1 14 -0.5t11 0.5q3 -1 13 -15q5 -6 -5 -10q-3 -1 -3 -6q0 -17 30 -80 q1 -4 5 -14q9 27 24.5 63t24.5 51q16 25 28 25q3 0 5 -1h5.5h16.5q23 -1 24 -1q7 -5 12.5 -11t16.5 -11q9 -5 9 -13t-10 -20q-19 -24 -51 -114q-19 -54 -29 -76t-33 -57q-9 -36 -12 -44q-8 -21 -13 -30.5t-8 -26.5q-4 -18 -2 -35.5t-3 -33.5q-6 -18 -17 -54.5t-12 -44.5 q-3 -13 -8 -25q-13 -29 -24 -39q-9 -8 -9.5 -0.5t-4.5 7.5q-6 -1 -7.5 -10.5t-11.5 -16.5q-1 0 -14.5 8t-14.5 9q-11 -6 -26 -10t-16 2t-10 4q-4 -1 -4 4q0 4 4 13z" />
<glyph unicode="z" horiz-adv-x="330" d="M-23 95q10 24 21 69t33 104t60 92t57 84q18 51 31 90.5t-14 46.5q-27 6 -29 -3t-10 -8q-9 0 -8 7t-10 4t-14.5 -9.5t-14.5 -1.5q-18 8 -48 6q-18 -3 -2 48q17 57 30 59q1 1 7 3q4 2 10 1h5l16 -6t38 2q15 5 27 5q6 0 10 -1l32 -6t33.5 -2t27.5 -2t42.5 -7.5t29.5 -22.5 q-3 -20 4 -37q3 -7 3 -13q0 -10 -7 -19q-11 -17 -28 -36t-29 -43q-19 -40 -40 -79q-15 -27 -45 -105t-39 -99q-10 -21 -1.5 -29t21.5 -2q12 6 9 5t18 -1q48 0 60 4q5 1 19.5 20.5t14.5 -12.5q-2 -33 -7.5 -68t-16.5 -47q-12 -12 -26 -28q-7 -8 -10 -8t-3 9q1 38 -14 21 q-13 -15 -27 -8q-12 5 -23 0q-24 -14 -30 -10q-16 7 -41 1q-24 -7 -31 -7h-2q-31 8 -48 1q-8 -3 -14 -3q-12 0 -13 12t-12 8q-6 -2 -6 4t4 17z" />
<glyph unicode="&#x2000;" horiz-adv-x="682" />
<glyph unicode="&#x2001;" horiz-adv-x="1365" />
<glyph unicode="&#x2002;" horiz-adv-x="682" />
<glyph unicode="&#x2003;" horiz-adv-x="1365" />
<glyph unicode="&#x2004;" horiz-adv-x="455" />
<glyph unicode="&#x2005;" horiz-adv-x="341" />
<glyph unicode="&#x2006;" horiz-adv-x="227" />
<glyph unicode="&#x2007;" horiz-adv-x="227" />
<glyph unicode="&#x2008;" horiz-adv-x="170" />
<glyph unicode="&#x2009;" horiz-adv-x="273" />
<glyph unicode="&#x200a;" horiz-adv-x="75" />
<glyph unicode="&#x202f;" horiz-adv-x="273" />
<glyph unicode="&#x205f;" horiz-adv-x="341" />
<glyph unicode="&#x25fc;" horiz-adv-x="700" d="M0 0v700h700v-700h-700z" />
</font>
</defs>
</svg>
